<svg fill="#FFFFFF" xmlns="http://www.w3.org/2000/svg"  viewBox="0 0 48 48" width="48px" height="48px"><path d="M 23.986328 0.95898438 C 11.620328 0.95898438 7.0117187 12.04425 7.0117188 19.03125 L 7.0117188 41.40625 C 7.0117188 42.57125 7.8054531 43.570938 8.9394531 43.835938 L 17.910156 45.941406 C 18.658156 46.115406 19.431203 45.946656 20.033203 45.472656 C 20.636203 44.997656 20.981375 44.284578 20.984375 43.517578 L 20.986328 42.828125 C 21.317099 42.890374 21.648226 42.929688 21.970703 42.929688 L 23.869141 42.929688 L 25.769531 42.929688 C 26.197852 42.929688 26.591714 42.85164 26.966797 42.744141 L 26.962891 43.582031 C 26.957891 44.353031 27.316781 45.095406 27.925781 45.566406 C 28.372781 45.913406 28.907078 46.09375 29.455078 46.09375 C 29.662078 46.09375 29.870172 46.068625 30.076172 46.015625 L 39.072266 43.740234 C 40.181266 43.459234 40.957031 42.464312 40.957031 41.320312 L 40.957031 18.935547 C 40.960031 10.001547 35.130328 0.95898437 23.986328 0.95898438 z M 18 4 C 15.7 6.5 18 8 18 8 C 17.623 10.636 18.897391 12.009969 19.900391 12.667969 C 20.141391 13.538969 20.453781 14.313234 20.800781 14.990234 C 15.951781 14.882234 14 10.972 14 9 C 14 5 18 4 18 4 z M 30 4 C 30 4 34 5 34 9 C 34 10.992 32.012688 14.966094 27.054688 14.996094 C 27.388687 14.346094 27.689734 13.605391 27.927734 12.775391 C 28.948734 12.164391 30.398 10.787 30 8 C 30 8 32.3 6.5 30 4 z M 23.929688 7.7304688 L 27.425781 9.4785156 C 27.315781 14.000516 24.808688 16.703672 23.929688 17.513672 C 23.050687 16.703672 20.542594 14.001469 20.433594 9.4804688 L 23.929688 7.7304688 z M 30.753906 20.431641 C 32.600906 20.431641 34.046875 21.949719 34.046875 23.886719 C 34.046875 24.434719 33.702203 25.602297 32.783203 26.404297 C 32.030203 27.060297 31.051234 27.311438 29.865234 27.148438 C 29.149234 27.049437 28.433625 27.264422 27.890625 27.732422 C 27.342625 28.204422 27.028391 28.890328 27.025391 29.611328 L 27.013672 32.347656 C 26.158508 32.154481 25.099573 32 23.900391 32 C 22.788174 32 21.82038 32.135199 21.011719 32.308594 L 21.017578 29.628906 C 21.020578 28.907906 20.707109 28.221141 20.162109 27.744141 C 19.622109 27.273141 18.906406 27.054484 18.191406 27.146484 C 17.014406 27.296484 16.017469 27.028891 15.230469 26.337891 C 14.306469 25.525891 13.890625 24.328281 13.890625 23.738281 C 13.890625 21.854281 15.319844 20.433594 17.214844 20.433594 C 18.782844 20.433594 20.433141 21.371562 22.119141 23.226562 C 22.596141 23.749562 23.254328 24.024969 23.986328 24.042969 C 24.695328 24.037969 25.373797 23.729219 25.841797 23.199219 C 26.961797 21.936219 28.722906 20.431641 30.753906 20.431641 z M 29.484375 21.992188 C 28.362375 21.992188 27.411062 22.627531 27.039062 23.519531 C 26.995062 23.625531 27.008219 23.747797 27.074219 23.841797 C 27.140219 23.936797 27.251141 23.992188 27.369141 23.992188 L 31.597656 23.992188 C 31.715656 23.992188 31.826578 23.936797 31.892578 23.841797 C 31.958578 23.746797 31.971734 23.625531 31.927734 23.519531 C 31.555734 22.627531 30.606375 21.992187 29.484375 21.992188 z M 18.494141 22.009766 C 17.365141 22.009766 16.409156 22.645109 16.035156 23.537109 C 15.990156 23.643109 16.004313 23.765375 16.070312 23.859375 C 16.137313 23.954375 16.248188 24.011719 16.367188 24.011719 L 20.621094 24.011719 C 20.740094 24.011719 20.850969 23.954375 20.917969 23.859375 C 20.984969 23.764375 20.998125 23.643109 20.953125 23.537109 C 20.579125 22.645109 19.623141 22.009766 18.494141 22.009766 z M 24 34 C 25.194464 34 26.217823 34.176612 27.003906 34.373047 L 26.980469 39.544922 L 26.9375 39.480469 C 26.49751 39.773796 26.04096 39.929688 25.769531 39.929688 L 23.869141 39.929688 L 21.970703 39.929688 C 21.420703 39.929688 21.177697 39.814415 21.03125 39.667969 L 20.994141 39.705078 L 21.005859 34.378906 C 21.781484 34.180161 22.793837 34 24 34 z"/></svg>