<svg id="Layer_1" data-name="Layer 1" xmlns="http://www.w3.org/2000/svg" viewBox="0 0 1771.25 720.41"><path d="M789.94,66.19c.72.69,1.41,1.42,2.16,2.06a3.07,3.07,0,0,0,4.31.06c2.53-1.93,4.94-4,7.62-5.73a9.27,9.27,0,0,1,5.86-1.81,10.35,10.35,0,0,0,3.76-.65c3.22-.95,6.41-2,9.6-3a6.11,6.11,0,0,0,1.87-.85,4.78,4.78,0,0,1,2.72-1.07A2.09,2.09,0,0,0,829.92,53c.46-5.21,2.54-10,4-15,.63-2.22-.36-4.08-.72-6.09-.1-.56-.34-1.11-.4-1.68a23.4,23.4,0,0,1-.21-3.24,12.27,12.27,0,0,1,.74-4.47c.64-.76,1.23-1.56,1.93-2.26,1.34-1.34,3.23-.95,3.71.85a19.79,19.79,0,0,1,.7,5,58.89,58.89,0,0,1-.6,7.72,13.13,13.13,0,0,0,.67,6.17c1,3.09,2.21,6.14,3.32,9.22.34.95.71,1.87,1.92,2.18,2.48-1.08,5.22-1.62,7.57-3.23a18.59,18.59,0,0,1,4.12-1.73,3.55,3.55,0,0,1,3.52.34,5.48,5.48,0,0,1-3.41,3.53c-2.42,1.15-4.91,2.16-7.33,3.32-1,.51-2.29.75-3,1.87,1.12,2.93,2.25,5.86,4.36,8.15,1.79-1,3.59-2,5.33-3,3.9-2.35,7.71-4.85,11.68-7.07a22.62,22.62,0,0,1,5.35-1.8,6.66,6.66,0,0,0,3.48-1.58c.1-.75.21-1.51.33-2.39,2.4-.39,4.58.65,6.94.33a4.78,4.78,0,0,1,.68,1.67,2.76,2.76,0,0,1-.71,1.55c-1,1.15-2,2.29-3.73,2.07a2,2,0,0,0-1.17.21c-2.51,1.48-5.5,1.58-8.1,2.76s-5.26,2.35-7.75,3.76c-2.32,1.32-4.39,3.1-6.71,4.4-1,.55-.39,1.44-1,2a6.81,6.81,0,0,0-1.62,1.64,2.71,2.71,0,0,0-.25,2c.75,2,1.37,4.19,3.49,5.41,0,1.27.09,2.56,0,3.83a2,2,0,0,1-2.19,1.94,9.82,9.82,0,0,0-2.36,0c-1.72.48-2.64-.4-3.39-1.69-.55-.95-1.07-1.91-1.55-2.89-1.51-3.12-1.59-3.3-.64-8a5.82,5.82,0,0,0-.6-4.52c-1.43-2.38-2.56-4.93-3.8-7.41a2.57,2.57,0,0,0-2.1-1.5A10.16,10.16,0,0,0,833.5,57a3.92,3.92,0,0,0-1.57,3.09,46.36,46.36,0,0,0,.15,13.36c.35,1.83-.57,3.32-1.38,4.74-1,1.8-2.55,3.3-3.27,5.31a2.18,2.18,0,0,1-.76.9c-2.75,2.09-4.46,5-6.25,7.87a34.44,34.44,0,0,1-11,11.07,40.53,40.53,0,0,1-13.26,5.17,77.46,77.46,0,0,1-13,2,3.3,3.3,0,0,0-1.18.15c-3.43,1.57-7.12,1.72-10.78,2s-6.67,1.86-9.87,3.19c-1.64.69-3.25,1.48-4.87,2.22s-3.29,1.42-4.86,2.27c-3.66,2-7.25,4.07-10.92,6-2.19,1.16-4.46,2.18-6.74,3.13a6.33,6.33,0,0,1-5.73,0c-2.54-1.3-5.13-.84-7.68.47a52.76,52.76,0,0,1-6.32,2.6c-2.6.92-4,2.36-4.66,5.36a10.19,10.19,0,0,1,1.47,7,41.77,41.77,0,0,0,.06,4.47c0,.89,0,1.87-1.12,2.18a2.11,2.11,0,0,1-2.37-1.39c-1.24-2.93-2.65-5.8-2.12-9.17.18-1.12.29-2.42-1.07-3.4-1.84.93-4.07,1.2-5.8,2.65a4.05,4.05,0,0,1-1,.59c-3.58,1.47-7.18,2.87-10.73,4.42A50.85,50.85,0,0,1,672.52,149a5.08,5.08,0,0,1-5.46-2.77,23.58,23.58,0,0,1-.93-2.19,16.32,16.32,0,0,0-.8-1.93,3.3,3.3,0,0,0-4-1.74c-2.93.87-5.86,1.53-8.63,3.12A98,98,0,0,0,639.07,153c-.91.74-2,1.32-2.87,2.05-1.63,1.3-3.21,2.67-4.82,4-.68.57-1.36,1.15-2.09,1.65a3.62,3.62,0,0,0-1.7,4.09c.32,1.36.81,2.68,1.13,4s0,1.94-.77,2.31a2,2,0,0,1-2.76-1c-.43-.67-.73-1.42-1.19-2.07s-1-1.18-1.57-1.87c-.65.44-1.15.73-1.59,1.09a51.11,51.11,0,0,1-6.74,4.9c-2.65,1.53-5,3.54-7.55,5.3a12.1,12.1,0,0,1-2.79,1.71,21.6,21.6,0,0,0-5.06,3.06c-2.62,1.8-5.08,3.8-8,5.06a2.31,2.31,0,0,0-1.49,2.07c-.15,2-.33,4-.42,5.95-.07,1.62-.21,3.15-1.45,4.4a6.8,6.8,0,0,0-1.53,3.83,4.23,4.23,0,0,1-2.63,3.43,2.37,2.37,0,0,1-1.51-2.86c.49-3.34.19-6.77,1.15-10.06a9.78,9.78,0,0,0,0-2.5,10.79,10.79,0,0,0-4.64.94,42.43,42.43,0,0,1-10.84,2,47.63,47.63,0,0,1-11.62-.34,17.4,17.4,0,0,1-4.49-1.48,26.84,26.84,0,0,1-8.55-6.37,17.37,17.37,0,0,1-3.76-6.7,36.4,36.4,0,0,1-1.47-14.73,140.38,140.38,0,0,1,2.67-16.46c.72-3,1.73-5.9,2.59-8.85,1-3.63,2-7.3,3.17-10.88s2.66-7.07,4-10.61q2.79-7.4,5.56-14.8a9,9,0,0,1,.5-1.41c2.66-4.43,3.9-9.58,7-13.79.34-2.06,1.93-3.43,2.83-5.18a6.23,6.23,0,0,0,.72-1.3c.53-2.42,2.49-3.94,3.73-5.9a49.12,49.12,0,0,1,4.53-6.26c2-2.3,4.34-4.36,6.54-6.51.35-.35.89-.56,1.14-1,1.4-2.25,3.75-2.41,6-2.79a4.33,4.33,0,0,1,5.25,2.88,10.36,10.36,0,0,1,.74,6.7,12,12,0,0,0-.46,2.64,25.87,25.87,0,0,1-1.35,8.21c-.49,1.35-.33,2.94-.55,4.41s-.57,3.12-.86,4.68c-.2,1.07-.42,2.13-.63,3.19a6,6,0,0,1-.31,1.43c-1.41,2.91-1.86,6.07-2.51,9.19a3.78,3.78,0,0,1-1.53,2.83c-1.13-1.08-.69-2.29-.51-3.4.4-2.46,1-4.88,1.31-7.35a84.85,84.85,0,0,1,1.78-9.36,41,41,0,0,0,.56-4.73c.5-4.14,1-8.28,1.5-12.42a3.91,3.91,0,0,0-1.38-4c-3.48,1.24-6.75,2.91-8.81,6.36-2,.7-4,1.32-5.15,3.52-.7,1.37-2.17,2.34-3,3.66-2.28,3.61-4.45,7.28-6.6,11-1.4,2.4-2.83,4.81-4,7.33-3.2,6.85-6,13.84-8.7,20.92-1.87,4.94-3,10.09-5,15a142.26,142.26,0,0,0-6.1,21.51c-1.7,7.7-2.33,15.6-.62,23.42,1,4.69,3.44,8.63,7.92,11,2.64,1.37,5.12,3.07,8.2,3.42a26.77,26.77,0,0,0,7.1.28c3.83-.56,7.77-.29,11.51-1.48,2.17-.69,4.36-1.35,6.48-2.16a2.33,2.33,0,0,0,1.24-1.49q1.41-8.09,2.63-16.18a9.18,9.18,0,0,0-1.05-5.48c-1.44-3-1.45-6.15-1.14-9.36.2-2.05,1.57-3.48,2.79-4.83a10,10,0,0,0,2.44-6.23c.19-2,.64-3.91.8-5.89.56-6.82,1.05-13.65,1.55-20.48.18-2.38.39-4.76.48-7.15.07-2,.48-4-.55-5.86a3.09,3.09,0,0,1,.16-2,4.34,4.34,0,0,1,.81-1.24c1-1.36,1.77-1.73,2.69-1.37a2.6,2.6,0,0,1,1.49,3c-.2,1.47-.53,2.93-.76,4.4s-.43,2.76-.54,4.14q-.87,11-1.67,22a10.29,10.29,0,0,0,.28,3.94,5.06,5.06,0,0,0,.66-1.34c.78-4.3,1.55-8.61,2.25-12.93a150.82,150.82,0,0,1,6.18-23.94c.95-2.82,2.06-5.58,3.2-8.64l2.81-.62a18.39,18.39,0,0,1,.66,2.06,58.22,58.22,0,0,0,3.25,11.45,5.5,5.5,0,0,1,.16.58c.71,2.78,1.43,5.56,2.11,8.35a37.05,37.05,0,0,0,1.64,6.33,23.28,23.28,0,0,1,.66,3.5c.58,2.21,1.25,4.4,1.89,6.59a2.44,2.44,0,0,1,.16.57c.14,4.74,2.35,9,2.82,13.72a56.93,56.93,0,0,0,1.8,7.84c0,.16.27.27.55.54a15.28,15.28,0,0,0,3.81-2.5c.24-.17.37-.49.61-.65,3.44-2.35,6.31-5.44,10-7.42,2.35-1.25,4.46-3,6.82-4.2a36.91,36.91,0,0,1,5.85-2.17c2.46-.78,5-1.52,7.46-2.14,3.07-.75,6.18-1.35,9.27-2a4.77,4.77,0,0,0,1.17-.2c3.17-1.67,6.69-2.33,10-3.55a33.75,33.75,0,0,0,5.17-2.1,15.29,15.29,0,0,1,6-1.66,8.14,8.14,0,0,0,3-.84,24.49,24.49,0,0,1,3.42-1.14,3.92,3.92,0,0,0,.21-3.94,14.82,14.82,0,0,1-1.35-5.17,2.67,2.67,0,0,0-.32-1.14c-1.75-3.29-1.72-6.91-1.92-10.48a21,21,0,0,0-1.31-7.29,6.69,6.69,0,0,1,0-5.75,2.76,2.76,0,0,1,3.31,1.63,10.46,10.46,0,0,1,.93,3.13,15.22,15.22,0,0,0,2.19,5.8c-.23-2.35-.46-4.71-.7-7.06-.3-3.07-.54-6.15-.94-9.2-.5-3.83-1.14-7.64-1.71-11.46a6.36,6.36,0,0,1-.14-1.78,15.42,15.42,0,0,0-.43-5.33,7.28,7.28,0,0,1-.16-2.08,2.08,2.08,0,0,1,3.47-1.56c.48.35.86.81,1.34,1.16a10.65,10.65,0,0,0,1.36.75c.17,2.51,2.16,3.65,3.76,5.09,1,.93,2.1,1.82,3.08,2.79,1.7,1.67,3.31,3.43,5,5.06,3,2.86,6.11,5.68,9.24,8.44a12.63,12.63,0,0,0,4.73,2.94,2.37,2.37,0,0,1,1.07.9c2.08,2.86,5.18,3.7,8.39,3.72,2.27,0,4.09-1.54,5.23-3.51a12.1,12.1,0,0,1,2.55-3.6,5.45,5.45,0,0,0,1.09-1.77c1.83-3.74,3.68-7.48,5.46-11.24a33.64,33.64,0,0,0,1.32-3.64c.54-1.59,1.61-2.18,3.43-1.82,1.81,2.82,3.58,5.8,5.57,8.63A38.68,38.68,0,0,0,766,78.66c1.64,1.62,5.38,1.71,7.23,0s4.28-3.51,5.58-6.11a12.76,12.76,0,0,0,1.55-4.46,10.51,10.51,0,0,1,2.3-5.11c.87-1.23,1.82-1.24,3-.26L790,66.27ZM752.1,97.83c-.36,1.07-.65,1.88-.9,2.71-1.35,4.47-4.43,7.67-7.84,10.6a3.69,3.69,0,0,1-1.6.78,12.89,12.89,0,0,0-5.86,3.2c-2.89,2.55-5.86,5-8.63,7.71a6.79,6.79,0,0,1-9.66-.16,16,16,0,0,1-1.39-1.75,24.69,24.69,0,0,0-8.56,2c-.73,3.19.56,5.79,1.41,8.51a3.72,3.72,0,0,0,1-.13c2.6-1.22,5.16-2.53,7.79-3.7,3.51-1.56,7.15-2.38,11-1.21,2.19.66,4.28,1,6.23-.66a5.82,5.82,0,0,1,1.37-.58c3.17-1.4,6.52-2.45,9.29-4.65a6.65,6.65,0,0,1,1.06-.55c1.14-.61,2.28-1.2,3.4-1.82A110.29,110.29,0,0,1,762,112.32c1.55-.63,3.07-1.37,4.66-1.91A34.08,34.08,0,0,1,776,109a8,8,0,0,0,1.77-.07c3.11-1,6.37-1.22,9.5-2.14,2.66-.79,5.54-.54,8.17-1.59a1.44,1.44,0,0,1,.58-.09c3.19.11,6-1.15,8.89-2.28a8.49,8.49,0,0,0,4.52-3.26,2.48,2.48,0,0,1,.81-.86c3.19-1.73,5.06-4.64,7-7.56a66.68,66.68,0,0,1,5.36-7.81,79.45,79.45,0,0,0,5.11-6.94,3.79,3.79,0,0,0,.45-1.39,6.71,6.71,0,0,0-.94-4.57c-.87-1.73-1.48-3.53.39-5.13A1.61,1.61,0,0,0,828,64.2c0-1.77,0-3.54,0-5.45a4.54,4.54,0,0,0-1.35.16,16.39,16.39,0,0,1-5.11,1.57,6.36,6.36,0,0,0-1.7.54,36.29,36.29,0,0,1-10,3,16.72,16.72,0,0,0-8.07,4.21c-1.42,1.22-3,2.25-4.55,3.34-2.57,1.81-5.08,1.25-7.53-.26-.75-.47-1.39-1.12-2.12-1.63s-1.56-1.54-2.88-1.57c-1.42,2.51-2.81,5-4.26,7.49A11.47,11.47,0,0,1,778.8,78a24.55,24.55,0,0,1-8.13,5.4,4.32,4.32,0,0,1-2.86.33,14.36,14.36,0,0,1-6.18-4c-1.9-2.41-3.5-5.06-5.28-7.57-.28-.4-.85-.6-1.41-1a33.75,33.75,0,0,1-1.38,3.56c-1.71,3.24-3.46,6.46-5.3,9.62-1,1.71-2.34,3.22-3.27,5a7.82,7.82,0,0,1-3.47,3.1c-2.8,1.59-5.74,1.4-8.72,1A10.3,10.3,0,0,1,728,91.23c-4.15-3.08-8.09-6.42-12.09-9.69-2.78-2.28-5.12-5-7.8-7.33-1.93-1.7-3.61-3.68-5.44-5.48-.52-.51-1-1.32-2.08-.78a11.6,11.6,0,0,0,.09,4.39,38.47,38.47,0,0,1,.9,5.29c.12,2.57-.22,5.17.77,7.66a3.23,3.23,0,0,1,0,1.48,25.06,25.06,0,0,0,.82,7.66,26.33,26.33,0,0,1,.74,4.1c.25,6.39,1.53,12.63,2.7,18.89a9.47,9.47,0,0,0,.67,1.68,22.3,22.3,0,0,0,4.92-1.36,23.38,23.38,0,0,1,5-.65c.46-2.47,2.21-3.93,3.77-5.55a7.56,7.56,0,0,1,4.1-2.28c2.39-.46,4.81-.75,7.33-1.13a9.12,9.12,0,0,0-.32-4.28,2.22,2.22,0,0,1,1.15-2.72,4.31,4.31,0,0,1,2.53,2.52c.58,1.27,1.12,2.56,1.74,3.8a13.2,13.2,0,0,0,1,1.56,6.27,6.27,0,0,0,.81-.08,10.73,10.73,0,0,0,1.12-.42c3.44-1.54,5.95-3.85,6.74-7.75.72-3.5,2.42-6.74,2.7-10.38a2.21,2.21,0,0,1,2.25-2c.84-.07,1.47.48,1.8,1.66a11.1,11.1,0,0,0,.26,1.46c.71,1.52,1.44,3,2.27,4.49a2.35,2.35,0,0,0,1.36,1.07,14.8,14.8,0,0,0,8.37-.86c1.92-.8,3.85-1.6,5.79-2.34a3.66,3.66,0,0,1,1.75-.27,2.14,2.14,0,0,1,1.47.77,1.86,1.86,0,0,1-.11,1.62,4.67,4.67,0,0,1-3.59,2.37,13.47,13.47,0,0,0-6.21,1.94,6.83,6.83,0,0,1-2.58.61c-.89.11-1.8,0-2.68.09A7.9,7.9,0,0,1,754,99.11C753.42,98.71,752.86,98.35,752.1,97.83Zm-124.78,61c1.4-1.15,2.54-2.24,3.83-3.11,4.37-2.94,7.89-7,12.5-9.58.25-.14.43-.41.67-.58.87-.64,1.73-1.29,2.63-1.88a23.56,23.56,0,0,1,2.58-1.48c2.5-1.18,4.5-3.31,7.34-3.86,1.94-.37,3.87-.85,5.83-1.12,3.29-.45,5.16.67,6.51,3.76.35.82.6,1.68.91,2.52.65,1.76,1.56,2.58,3.31,2.38,2.23-.25,4.61-.06,6.59-1.55a5,5,0,0,1,1.68-.56c1.81-.54,3.68-.91,5.41-1.62,2.1-.86,4.07-2,6.13-3s4-1.74,6-2.66c1.52-.72,3-1.54,4.66-2.41a19.14,19.14,0,0,0-2.06-9.38,9.31,9.31,0,0,0-6.21,1,12,12,0,0,1-2.73,1.11c-5,.94-9.67,2.89-14.53,4.23-3.62,1-7,2.84-10.88,2.89a2,2,0,0,0-.58.14q-4.7,1.32-9.4,2.66a34.15,34.15,0,0,1-4,1.19,23.43,23.43,0,0,0-8.52,3.48,156.26,156.26,0,0,0-14.26,10.16,31.87,31.87,0,0,0-3.46,3.68C626.29,156.23,626.22,157.29,627.32,158.81Zm-5.69,1.31c-1.64-2.9-3-5.45-4.48-7.89a20.7,20.7,0,0,0-3-3.68c-1.17-1.18-2.25-1.09-3.3.16a55.08,55.08,0,0,0-3.64,4.7c-2.32,3.46-4.67,6.86-8.17,9.31a8.48,8.48,0,0,0-2.13,2.47,7,7,0,0,1-2.31,2.24,5.67,5.67,0,0,0-2.79,4c-.35,2-.8,4.08-1.24,6.11a5,5,0,0,1-.58,1.67c-1.17,1.74-.84,3.54-.55,5.61.64-.17,1.27-.15,1.52-.44,1.48-1.74,3.63-2.41,5.49-3.5,3.68-2.16,6.68-5.36,10.72-7a3.21,3.21,0,0,0,.73-.51l11.54-8.34a4.06,4.06,0,0,0,2-3.42A13.83,13.83,0,0,1,621.63,160.12ZM608.07,99a17.48,17.48,0,0,0-2.19,4.58c-1.1,4.12-2.15,8.25-3.2,12.38-.83,3.25-1.42,6.56-2.13,9.83-1,4.64-1.46,9.39-2.8,14a6.31,6.31,0,0,0,.1,3.76,35.28,35.28,0,0,0,4.94-1.28,6.29,6.29,0,0,1,3.75-.53c1.42.28,2.83.65,4.36,1,.75-.69,1.54-1.43,2.36-2.15,1-.85,1.67-.9,2.59,0a22,22,0,0,1,1.82,2.33c.25.33.47.68,1.1,1.59-.29-2.38-.46-4.05-.69-5.7s-.45-3.14-.78-4.69-.77-3.07-1.15-4.6a13.67,13.67,0,0,0-.67-2.59c-1.08-2.19-1.29-4.57-1.77-6.9a42.38,42.38,0,0,0-1.52-6.36,38.47,38.47,0,0,1-1.64-6c-.43-2-.81-4.09-1.31-6.11A15.83,15.83,0,0,0,608.07,99Zm-13.89,64.75a1.81,1.81,0,0,0,2.11-.87,14.71,14.71,0,0,1,1.15-1.72A57.54,57.54,0,0,0,605.2,151a14.82,14.82,0,0,0,2.42-4.56l-4.77-1L602,146.8a8.57,8.57,0,0,0-1-.29c-2.28-.39-3.32.1-4.32,2.13-1.23,2.49-2.35,5-2.22,7.91a19.46,19.46,0,0,1-.57,4.11A3.71,3.71,0,0,0,594.18,163.72Zm242.18-120c-1.2,3.36-2.53,5.86-2.4,8.83,2.4,1,3.94-1,6.22-1.15C838.92,48.87,837.81,46.63,836.36,43.73ZM721,120.19l-.12.66c.37.21.78.63,1.11.58a28.44,28.44,0,0,0,3.11-.81,4.15,4.15,0,0,0,2.38-2C724.78,118.2,722.94,119.45,721,120.19Zm2.31-4.9c1.28.75,2.1,0,2.94-.42s2.15.07,2.71-1.18C725.91,112.54,725.58,112.63,723.27,115.29Zm-24-.29c-.67,1.8-.49,2.54.84,3.61A4.88,4.88,0,0,0,699.28,115Zm-1.66-8c-.11.1-.23.18-.22.22a4.2,4.2,0,0,0,.22.55Zm1.18,5.91c0,.06-.11.12-.12.19a.94.94,0,0,0,.07.22c0-.06.12-.12.13-.19A.74.74,0,0,0,698.8,112.88Z" transform="translate(400.39 -19.54)"/><path d="M1189.12,703a22.34,22.34,0,0,1-1.83-1.32,1.46,1.46,0,0,1-.25-2.15c1.55-1.72,1.18-3.9,1.45-5.87.55-3.94.82-7.91,1.16-11.87.09-1,.06-2,.06-3,0-3.08,0-6.17,0-9.25,0-3.57-.12-7.15-.26-10.72a8.76,8.76,0,0,0-.53-2c-1.34-.44-2,.25-2.7.77a77,77,0,0,1-16,9.13,36.85,36.85,0,0,1-6.58,1.83c-3.48.72-6.41-.73-9.12-2.73a10.63,10.63,0,0,1-1.1-1,2.66,2.66,0,0,0-3-.6c-1.4.46-2.92.52-4.34.92a58.42,58.42,0,0,0-7.37,2.33c-2.49,1.06-5.18,1.22-7.67,2.18a28.42,28.42,0,0,1-2.87.81c-1.34.35-2.69.68-4,1-.28.07-.6.06-.88.15l-11.34,3.63c-.19.06-.36.23-.54.23-2.9.05-5.18,1.85-7.79,2.72-1.31.44-2.69.64-4,1s-2.59.91-3.89,1.37a6.77,6.77,0,0,1-1.1.43c-3.61.7-6.21,3-8.74,5.44a3.41,3.41,0,0,0-1,2.94c.2,4.08.2,8.16.37,12.24a54.32,54.32,0,0,0,.63,6.23,9.43,9.43,0,0,1-.53,4.39,32.84,32.84,0,0,1-1.45,3.59c-.82,1.82-2.47,2.13-3.77.58a7.93,7.93,0,0,1-1.4-2.89,62.46,62.46,0,0,1-2.06-16.5,5.74,5.74,0,0,0-.5-3.38,15.65,15.65,0,0,0-3.55,1.35c-2.33,1.6-5,2.28-7.53,3.5a8.46,8.46,0,0,0-1.54,1.36,14.23,14.23,0,0,0-6.82.79c-.67,1.49-1.65,2.84-3.64,2.57-1.14,1.52-2.24,2.92-3.26,4.37a6,6,0,0,0-1.09,2.08c-.51,2.33-.88,4.69-1.29,7a7.46,7.46,0,0,1-.15,1.18c-1.64,4.32-1.8,9-3.07,13.37a34.32,34.32,0,0,0-.55,3.54,15,15,0,0,1-.56,2.31,2.45,2.45,0,0,1-2.42,1.86,2.56,2.56,0,0,1-2.19-2.45,4.51,4.51,0,0,1,0-.9,44.59,44.59,0,0,1,.31-6.24,32.11,32.11,0,0,1,1.88-5.32c.14-.37.5-.7.51-1.06.14-3.79,1.86-7.35,1.6-11.19-.08-1.11-.07-2.18-1-3a2.53,2.53,0,0,1-.74-2.48,21.71,21.71,0,0,1,1.8-6.56c1.3-2.56,2.4-5.23,3.55-7.87a3.76,3.76,0,0,0,.38-1.73,17.57,17.57,0,0,1,1-6.39,8.87,8.87,0,0,0,.15-2.37c.08-6.27.09-12.54.23-18.8.06-2.69.33-5.37.57-8,.37-4,.93-7.9,1.16-11.86a67.83,67.83,0,0,1,1.6-10.6c.91-4.17,1.31-8.45,2-12.68.27-1.66.67-3.3,1-5a19.32,19.32,0,0,0,.12-2.09c-.62.41-1,.53-1.16.79-1.73,2.52-3.86,4.85-4.22,8.1a1.44,1.44,0,0,1-.39.79c-2.1,2.09-3.06,4.85-4.23,7.45-1,2.16-1.52,4.52-2.29,6.77a21.39,21.39,0,0,0-1.45,4.81,8.25,8.25,0,0,1-.89,2.84,15,15,0,0,0-1.56,5.11,3,3,0,0,1-2.09,2.86c-.19-2.63-1.55-4.93.08-7.52a7.19,7.19,0,0,0,.7-5.43l1.88-2.51-.93-2.87a5.68,5.68,0,0,0,2.8-3.34c1.15-2.74,2.3-5.48,3.4-8.24.46-1.17.79-2.38,1.3-4l2.22-1.36c.37-1.14-.33-1.65-.81-2.27s-.58-1.16,0-1.59a2.07,2.07,0,0,1,1.37-.16,4.6,4.6,0,0,1,1.17.47,35.86,35.86,0,0,0,2.5-4c1.16-2.55,3.19-4.51,4.44-7a1.79,1.79,0,0,1,2.17-1.08,2,2,0,0,1,1.35,2.1,14.45,14.45,0,0,1-.41,2.35,98.58,98.58,0,0,0-1.62,12.71c-.16,1.76-.59,3.5-.92,5.25-.53,2.83-1.11,5.66-1.58,8.5-.2,1.22.77,1.91,1.58,3.06.3-1.63.51-2.9.78-4.16.49-2.22.89-4.47,1.54-6.64,1.15-3.8,2.32-7.59,3.78-11.29,1.3-3.29,2-6.8,3.23-10.82.93-1.06,2.77-.59,4.38-.76.24.31.48.48.46.62-.33,3.48,1,6.78,1.13,10.22a49,49,0,0,0,1.29,10.05c.93,3.64.74,7.3,1.07,10.95.2,2.21-.14,4.62,1.61,6.47-.08,1.35.9,2.7,0,4.06a2.62,2.62,0,0,0-.15,2.3c1.06,3.57.84,7.3,1.3,10.94.38,3.06.62,6.13,1,9.19.22,2,.46,3.94.8,5.89a7.74,7.74,0,0,0,.86,2.53c1.18,2.05,2.47,4,3.83,6.25a8.76,8.76,0,0,0,1.52-.24c.85-.27,1.65-.67,2.49-.95,1.59-.53,3.29-.86,4.18-2.54,2.78-1.61,4.9-4,7.33-6.06a13,13,0,0,0,1.16-1.29c.39-.41.71-1,1.19-1.2a5.47,5.47,0,0,0,2.83-3.38,6.71,6.71,0,0,0,4-2.8,5.39,5.39,0,0,1,3-2.32,2.67,2.67,0,0,0,1.33-1.46,3.49,3.49,0,0,1,2.62-2.18c2-.45,3.51-1.83,5-3.21a8.68,8.68,0,0,1,3.76-2.29,9.22,9.22,0,0,0,2.86-1.57c3-2.25,6.49-2.78,10.13-2.63a44.62,44.62,0,0,1,4.47.36,5.05,5.05,0,0,1,2.5.82c2.39,2.07,5.11,3.84,6.6,6.8a19.05,19.05,0,0,0,3.73,4.78c1.62-.71,3.1-1.7,4.69-2a17.33,17.33,0,0,0,4.88-1.18,6,6,0,0,1,1.73-.46,81.27,81.27,0,0,0,12.92-3.28,59.53,59.53,0,0,1,7.93-1.43c.48-.09,1-.22,1.49-.35,1-1.85.6-3.73.14-5.53-1.12-4.42-2.4-8.79-3.55-13.2-.59-2.29-1-4.62-1.58-6.92a9.54,9.54,0,0,0-1-2.47,12.2,12.2,0,0,1-1.52-6.24,1.74,1.74,0,0,1,2.39-.67,5.81,5.81,0,0,1,3.11,3.46c1.36,3.31,2.48,6.74,4,10s3.4,6.07,5.18,9c.56.93,1.32,1.74,2,2.63a9.2,9.2,0,0,0,3.64,3.24c.6-.33,1.6-.53,1.91-1.1.94-1.75,2.82-2.12,4.21-3.18a4.86,4.86,0,0,1,2.54-.67c1.58-.1,3.18,0,4.78,0,2.73,0,3.58-.77,4.23-3.56,0-.19.12-.38.24-.79,2.42-.43,3.65-2.61,5.36-4.21.92-.87.77-2,.84-3.06s-.35-2.42.81-3.59c2.55.36,3.92-1.42,5.15-3.46.76-1.24,1.63-2.43,2.55-3.8,3.43,1.58,5.8,4.45,9,5.69a2.67,2.67,0,0,0,1.39-2.31c.54-2.83,1-5.67,1.53-8.5a13.43,13.43,0,0,1,1.45-4.74c1.24-.36,2,.34,2.91,1-.37,5,1.85,9.51,3.29,14.4a8.84,8.84,0,0,0,2-.42c1.77-.8,3.87-.95,5.21-2.6a36.37,36.37,0,0,0,9.34-4.53,4,4,0,0,1,1.7-.53c2.6-.24,4.24-1.81,5.76-3.76a20.18,20.18,0,0,1,3.21-3,5.27,5.27,0,0,0,2.15-2.76,2.28,2.28,0,0,1,.94-1.41c2.16-1,3-3.08,4.39-4.76q1.59-2,3.2-3.91a23.77,23.77,0,0,0,1.51-1.84c1.72-2.65,4-5,5-8.11a5,5,0,0,1,1.45-1.85,6.21,6.21,0,0,0,2.24-4.39,6,6,0,0,1,.44-1.73,3.33,3.33,0,0,1,3.42-1.78,1.27,1.27,0,0,1,1.08,1.55c-.74,3,.59,5.64,1.63,8.31.43,1.11.69,2.29,1.13,3.4.66,1.65,1.41,3.27,2.11,4.91.47,1.1.9,2.21,1.37,3.3.76,1.77,1.63,2.46,3.43,2.17,3-.49,6.13-.71,8.69-2.78,1.62-1.32,3.61-.84,5.44-.59,1.22.17,1.41,2.31.2,3.17a13.56,13.56,0,0,1-3.46,1.57c-.93.31-2,.35-2.92.57a5.92,5.92,0,0,0-3.87,2.55h-3.28c3.19,3.86,4.94,8.21,8.19,11.85a21.4,21.4,0,0,0,2.76-1.17c3.06-1.83,6.07-3.74,9.13-5.57a10,10,0,0,1,1.67-.58c.64-.24,1.29-.49,1.9-.79,2.39-1.19,4.76-2.42,7.17-3.59,2.05-1,4.12-1.92,6.19-2.86a7.51,7.51,0,0,1,1.12-.41c2.37-.71,4.75-1.37,7.12-2.11a4.21,4.21,0,0,0,3-3.34,10.12,10.12,0,0,1,4.84.36,1.52,1.52,0,0,1,1.05,2.33c-.7,1.5-1.67,2.71-3.57,2.67a2.93,2.93,0,0,0-1.73.29,10.85,10.85,0,0,1-4.24,1.75c-2.29.58-4.45,1.65-6.72,2.34-2.69.83-5,2.39-7.52,3.56-.36.16-.66.62-1,.63-2.65,0-4.47,2-6.82,2.79a7.84,7.84,0,0,0-1.57.82c-1.45.85-2.91,1.7-4.32,2.6a17.17,17.17,0,0,0-4.61,4.06,2.33,2.33,0,0,0-.11,3,7.39,7.39,0,0,0,1,1.5c1.62,1.59,1.81,3.72,2.2,5.75a2.11,2.11,0,0,1-2.18,2.57,5.77,5.77,0,0,1-4.12-1.47c-1-.91-2.08-1.84-3.15-2.74-2.52-2.11-3.06-4.08-1.71-7a4.16,4.16,0,0,0-.26-4.48c-1.74-2.55-3.34-5.19-5-7.77a12.38,12.38,0,0,0-1.85-2.34,4.29,4.29,0,0,0-4.37-1.16c-1.9.54-3.9.73-5.8,1.29a59.24,59.24,0,0,0-7,2.46,28.86,28.86,0,0,1-7.57,2.54,20.75,20.75,0,0,0-3.13.93,5.23,5.23,0,0,1-1.69.53c-2.43-.17-3.84,1.45-5.28,2.93-1,1.06-1.91,2.29-2.85,3.44C1272,623,1268,627,1264,631.05c-3.17,3.32-6.79,6.12-10,9.36a13.26,13.26,0,0,1-3.82,2.78,39.83,39.83,0,0,0-4.53,2.84,6.47,6.47,0,0,1-1.5.94,18,18,0,0,0-5.38,3c-2.49,1.78-5.5,1.59-8.36.89a22.17,22.17,0,0,1-4.35-1.88,21.64,21.64,0,0,1-2.81-1.7,4,4,0,0,0-3.94-.41c-1.95.69-4,1-6,1.64a18.68,18.68,0,0,0-3,1.28,12.58,12.58,0,0,1-6,1.5,10.14,10.14,0,0,0-4.64.73,20.74,20.74,0,0,1-3.49.7c-2.68.68-3,1-2.92,3.64.07,3.58.32,7.15.42,10.73.1,4.27.14,8.55.17,12.82a45.25,45.25,0,0,1-1.39,11.52c-.41,1.62-.41,3.33-.66,5A15.06,15.06,0,0,1,1189.12,703Zm-115.31-34.35c.64-1.52.28-3.07.07-4.63-.36-2.81-.94-5.57-1.19-8.41s-.16-6-2.57-8.75l1.47-.51-1-1a17.69,17.69,0,0,0,.47-2.92c0-1.28-.24-2.56-.31-3.85-.11-1.88-.07-3.77-.26-5.65-.29-2.86-.69-5.71-1.12-8.55a14.65,14.65,0,0,0-1-4.32,6.75,6.75,0,0,1-.29-5.17,17.69,17.69,0,0,0,.54-2,6.76,6.76,0,0,0-.41-1.74c-.67,1.59-1.13,2.57-1.52,3.58-2.16,5.44-3.28,11.2-5.17,16.72a29.05,29.05,0,0,0-.89,4.38c-.38,2-.72,4.09-1.12,6.13s-.89,4.06-1.24,6.11c-.42,2.44-.66,4.92-1.08,7.37-.56,3.22-1.44,6.4-1.76,9.64a134.2,134.2,0,0,1-1.83,13.83,32.49,32.49,0,0,0-.39,4.75c0,.14.17.3.37.63a7.47,7.47,0,0,0,2.22-3c.4-1.07,1.71-1.76,2.49-2.72s1.44-2.09,2.33-3.4c.84.07,1.55-.58,2.38-1.39C1066.76,670.15,1066.61,668.9,1073.81,668.69Zm29.06,4.09a6.19,6.19,0,0,0,5.54-.52,12.33,12.33,0,0,1,4.84-1.3,9.56,9.56,0,0,0,3.19-.66,44.29,44.29,0,0,1,13-3.73c.2,0,.45,0,.58-.13,1.43-1.23,3.25-1.34,5-1.79,3.89-1,7.65-2.66,11.74-2.89a2.34,2.34,0,0,0,.59-.09,1.84,1.84,0,0,0,1.35-2.73,15.46,15.46,0,0,0-5.68-7.1,9.29,9.29,0,0,0-6.51-1.49,28.47,28.47,0,0,0-10.48,3.86,103.51,103.51,0,0,0-14,10.09c-1.42,1.24-2.89,2.42-4.33,3.63A35.25,35.25,0,0,0,1102.87,672.78Zm124.75-28c1.91,2.31,5.55,3.52,8,2.5a41.61,41.61,0,0,0,4.44-2.32q3-1.66,5.88-3.43c1.17-.72,2.29-1.53,3.4-2.34.56-.4,1-1.08,1.6-1.32,2.53-1,4.26-2.82,5.92-4.82a6.34,6.34,0,0,1,.64-.63c3.4-3,6.89-5.94,10.18-9.07,1.23-1.17,2.79-2.28,3.12-4.75-5.28,2.41-10.34,4.5-14.85,7.28-.23,1.57-.36,2.85-.62,4.11a2,2,0,0,1-1.81,1.7c-.85,0-1.13-.69-1.43-1.32-.09-.18-.14-.37-.23-.55-1-2.08-1.58-2.38-4-2.23a9.07,9.07,0,0,1-1.47.05,3.09,3.09,0,0,0-3,1.52,29.42,29.42,0,0,0-1.59,2.86,10.45,10.45,0,0,1-1,1.78,28.19,28.19,0,0,1-7.27,6.54,2.64,2.64,0,0,0-1.23,1.17c-.39,1.13-1.29,1.43-2.22,1.78S1228,643.62,1227.62,644.75Zm-170.86,50.86c.69-.59,1.19-1.36,1.86-1.57,2.71-.83,4.67-2.83,7-4.27s4.22-2.94,6.85-3.49a10.77,10.77,0,0,0,2.76-1.42c-.12-3.06-.24-5.92-.35-8.79,0-1.34-1-1.84-1.94-2.18l-7.54,2.45a10.46,10.46,0,0,1-1.49,3c-1.22,1.26-2.89,2.09-3,4.16,0,.23-.33.52-.57.66-2.61,1.56-3.92,4.4-6.22,6.28a2,2,0,0,0-.21,2.94C1054.78,694.28,1055.53,695.44,1056.76,695.61Zm252.33-96a15.77,15.77,0,0,0-.55-1.65c-2-4.57-4.4-9-5.35-14.34a8.23,8.23,0,0,0-1.15,1.14,175.61,175.61,0,0,1-12,17,22.26,22.26,0,0,0-1.94,2.63c-.23.39-.1,1-.13,1.51,1.74.23,2.5-1.09,3.43-1.5a24.32,24.32,0,0,0,3.76-.2c1.73-.37,3.42-1,5.12-1.47,2.56-.75,5.12-1.47,7.67-2.25C1308.34,600.39,1308.61,600,1309.09,599.66Zm-76.84,36.45c.41,0,.65.11.8,0a13.11,13.11,0,0,0,6.85-8.51,2.16,2.16,0,0,0-.27-1.69,10.4,10.4,0,0,0-4.68-3.54,1.41,1.41,0,0,0-1.84.59,44.61,44.61,0,0,0-2.59,5.29C1229.45,631.14,1230.23,633.74,1232.25,636.11Zm-68.86,29.67a97.84,97.84,0,0,0,9.94-4.35c3.11-1.77,6.59-2.95,9.9-5.66a23.58,23.58,0,0,0-2.5.27c-2.31.57-4.61,1.19-6.91,1.77-3.56.9-7.13,1.75-10.68,2.69a37.44,37.44,0,0,0-4.48,1.51c-.45.18-.72.77-1,1.1C1159,665.45,1161.38,665.06,1163.39,665.78Zm29.71-16.67,3.45-3c-2-1.74-2.81-4.34-5.47-5.93A23.63,23.63,0,0,0,1193.1,649.11Zm19.12-6.35c-2.12,0-3.83,0-5.26,1.22-.58.5-1.2,1.08-.66,2.1,1.56.69,2.92.59,4-1.09A19.43,19.43,0,0,1,1212.22,642.76Zm-158.83,56.06-2.27-2.44a6,6,0,0,0-.31,4.75Zm14.45-5.07c1.69-.65,3.78-.53,5.14-2.64C1070.36,690.76,1069.34,692.73,1067.84,693.75Zm13.74,8c0-1.54.68-3.19-.55-4.78C1081.05,698.73,1080.83,700.29,1081.58,701.8Zm166.36-80.6c-1.16.58-1.52,1.2-1.15,2a.83.83,0,0,0,1.23.09A1.57,1.57,0,0,0,1247.94,621.2Zm-25.52,18.32-.13-.21c-.06.06-.18.15-.17.17a2,2,0,0,0,.23.28Z" transform="translate(400.39 -19.54)"/><path d="M103.61,45.27c2.08.88,2.67,2.37,2.61,4.37a19.1,19.1,0,0,1-.92,5.56c-.9,2.74-1.42,5.62-2.48,8.29-1.54,3.86-2.15,8.06-4.24,11.73a13.2,13.2,0,0,0-.85,2.53,3.85,3.85,0,0,1-2.2,2.78,2.93,2.93,0,0,1,.1-3.81,9.93,9.93,0,0,0,2-5.2,15.94,15.94,0,0,1,.61-2.3c.57-2.11,1.09-4.24,1.7-6.34.41-1.43.91-2.84,1.41-4.24a23.35,23.35,0,0,0,1-8,8.23,8.23,0,0,0-5.1,3.16c-1.57,2.29-3.37,4.44-5.12,6.57C89,64.21,87,68.8,84,72.77c-.77,2.79-2.8,5-3.7,7.75s-2.7,5.52-3.89,8.36a130.2,130.2,0,0,0-6,16.53c-.57,2.11-1.32,4.17-2,6.25-1.17,3.62-1.51,7.4-2.15,11.12-.22,1.27-.66,2.51-.8,3.78-.42,3.66-.82,7.32-1,11a6.78,6.78,0,0,0,1.06,4.75c1.94-1.46,3.77-2.9,5.68-4.25,1.2-.85,2.5-1.57,3.78-2.3.77-.44,1.67-.7,2.39-1.2a22,22,0,0,1,8.21-3.39c1.45-.31,2.87-.83,4.33-1.08a2.11,2.11,0,0,0,2-1.89c.37-2,.77-3.9,1.22-5.84a27.62,27.62,0,0,1,1.49-5.4c.86-2,1-4.22,1.5-6.35.19-.87.47-1.72.59-2.6a19.73,19.73,0,0,0,.29-3.82,7,7,0,0,1,.47-3.47c.71-1.63,1.19-3.36,1.78-5a1.31,1.31,0,0,0,.09-.28c.4-3.34,1-6.67,1.14-10,.11-3.83-.1-3.83,2-7.58,2.28-.26,3,.09,3.69,1.91a7.59,7.59,0,0,1-.5,6.34,9.89,9.89,0,0,0-1.18,4.25,3.27,3.27,0,0,1-.38,1.73c-2.15,2.91-1.73,6.47-2.46,9.72-.41,1.82-.41,3.73-1.13,5.52a3.32,3.32,0,0,0,.22,2.43,3.83,3.83,0,0,0,.74-.94c.75-2.15,1.46-4.33,2.16-6.5.31-.94.57-1.9.86-2.85a6.57,6.57,0,0,1,.55-1.69c2.35-3.76,2.66-8.34,5-12.1.49-3.23,2.44-5.82,3.81-8.66A5,5,0,0,1,115.23,75a2.84,2.84,0,0,1,1.92-.37c.77.11,1.06.83,1.11,1.58.21,3.27.37,6.54.61,9.81.2,2.68.41,5.36.77,8a166.81,166.81,0,0,1,1.73,18.42c.13,5.07.33,10.14.53,15.22.08,2.18.19,4.36.39,6.54a21.46,21.46,0,0,0,.69,2.91c1.25.51,2.3.78,3.37-.26a2.94,2.94,0,0,1,1.61-.7,8.77,8.77,0,0,0,3.56-1.45,4,4,0,0,1,1-.6c2.49-.62,5-1.19,7.5-1.77a11.09,11.09,0,0,0,1.46-.29c3.21-1.24,6.64-1.13,10-1.62a13.65,13.65,0,0,0,2.65-.38,18.61,18.61,0,0,1,5.59-.79,7.45,7.45,0,0,0,2.34-.38c5.15-1.88,10.55-2.82,15.84-4.14,4.14-1,8.36-1.76,12.5-2.8a35.63,35.63,0,0,0,6.42-2.31,42.71,42.71,0,0,0,5.56-3.38c4.28-2.9,8.85-5.3,13.35-7.84,1.7-1,3.27-2.17,4.91-3.26a19.42,19.42,0,0,1,2-1.29c3-1.53,6-3.11,9.08-4.5a4,4,0,0,0,2.63-3.91c.06-2,.21-4,.42-5.95a29.39,29.39,0,0,1,.66-2.89,29.4,29.4,0,0,0,.57-3.2c.34-3.76.67-7.52.92-11.29.3-4.28,1.57-8.39,2.08-12.62.4-3.25.48-6.53.73-9.8a16.21,16.21,0,0,1,.38-3,1.79,1.79,0,0,1,2-1.45,2.1,2.1,0,0,1,2.07,1.42,4.22,4.22,0,0,1,.29,1.15c.12,2.66,1.33,5,2.29,7.37.67,1.66,1.34,3.31,2,5a41.11,41.11,0,0,0,3.6,7.17,41,41,0,0,1,2.83,5.9,69,69,0,0,0,7.25,13,52,52,0,0,0,4.91,5.59A8.23,8.23,0,0,0,272.17,94a4.32,4.32,0,0,0,2.29-.37,52.5,52.5,0,0,0,5.86-2.93,37.42,37.42,0,0,0,8.11-5.94c3.47-3.69,7-7.3,10.43-11a24.42,24.42,0,0,0,4.45-6.28,3.11,3.11,0,0,1,1.29-1.19c1.63-1,2.78-.39,2.67,1.54-.24,4.42,1.19,8.41,2.79,12.39a14,14,0,0,0,.74,1.63,4.43,4.43,0,0,0,6.06,1.9c.8-.38,1.64-.68,2.46-1,.46-.19,1-.26,1.34-.59,1.95-2.1,4.79-2.77,7-4.48a3.58,3.58,0,0,1,4.43-.24c.4.25.95.59,1.35.5,2-.47,4.17-.19,6.06-1.34a18.3,18.3,0,0,1,2.75-1.09c1.47-.59,2.9-1.32,4.4-1.79,4.24-1.34,8.14-3.61,12.7-4.12A39,39,0,0,0,368,67.32a7.89,7.89,0,0,0,4.34-4.67,27,27,0,0,1,4.19-6.79,8.92,8.92,0,0,0,1.23-1.66c.67-1.33.87-2.64-.42-3.8a5.77,5.77,0,0,1-.83-1.38c2.31-2.57,2.8-5.84,3.34-9A8.52,8.52,0,0,1,382.14,36a1.81,1.81,0,0,1,2.79.52,5.84,5.84,0,0,1,.47,1.41c1.43,6.39,2.78,12.8,4.29,19.17a39.1,39.1,0,0,0,1.95,5.08,3.9,3.9,0,0,0,4.19-.6,3.81,3.81,0,0,1,3.06-.89,1.26,1.26,0,0,1,1.25,1.48c-1.66,2.16-4.71,1.72-6.95,3.35-.06,3.54,2.27,6.21,3.28,9.6a6.45,6.45,0,0,0,1.74-.92,7.27,7.27,0,0,1,3.54-2.08c2.36-.76,4.69-1.64,7-2.46a1.42,1.42,0,0,0,.29-.1c3-2,6.62-2.64,9.94-3.94a3.17,3.17,0,0,0,1.3-.68c1.69-2.13,4.33-2.3,6.57-3.3a1.54,1.54,0,0,1,.85-.23,4.6,4.6,0,0,1,1.84.66c.54.44.28,1.52-.39,2.12a5,5,0,0,1-1.48,1c-2.23.79-4.48,1.5-6.73,2.23-.56.19-1.13.34-1.67.56-3.4,1.4-6.8,2.77-10.17,4.23-2.73,1.18-5.5,2.3-8.09,3.74s-2.83,3.16-1.76,5.8a16.12,16.12,0,0,1,1,2.78,2.25,2.25,0,0,1-1.83,2.91,5.7,5.7,0,0,1-1.48.17c-2.69,0-5.38-.07-8.07,0a3.11,3.11,0,0,1-3.27-2c1.75-4,1-3.21,3.8-3.69-.06-.46-.13-.93-.22-1.55a23.18,23.18,0,0,0,2.35-1.14c1.48-.94,1.83-1.87,1.19-3.55-1.13-3-2.08-6-4.49-8.49a4.69,4.69,0,0,0-2.94,1c-1.86,1.51-4.17,1.83-6.25,2.73a3.24,3.24,0,0,1-2.88,0c-1.64-.81-3.46-.69-5.33-1.08-1.7,2.37-3.27,4.65-4.93,6.86a51.32,51.32,0,0,1-11.58,11.49c-2.93,2-5.78,4.2-8.68,6.27a10.75,10.75,0,0,1-2.33,1.32c-3.51,1.36-6.85,3.11-10.53,4.1a59,59,0,0,1-8.8,1.57,22.17,22.17,0,0,1-4.45-.18,48.92,48.92,0,0,1-6.18-.72c-2.22-.47-4.45-1.06-6-3A28.54,28.54,0,0,0,305,95.15c-1.26.75-2.87.83-4,2.33.42.4.76.93,1.22,1.1a23.54,23.54,0,0,0,2.82.67c0,1.84-.6,2.75-2.18,3s-3.4.35-4.79-1c-1.54-1.47-3.07-1.47-4.82-.23a80.58,80.58,0,0,0-7.91,5.8,54,54,0,0,1-7.86,5.9c-4.53,2.82-9.22,5.41-13.9,8a26.44,26.44,0,0,1-4.42,1.76,5.73,5.73,0,0,1-2.07.2c-1.3-.06-1.89-.53-1.85-1.84a39.16,39.16,0,0,1,.62-5.6c.19-1.07.85-2.16-.12-3.07s-2-.4-3.09-.09c-3.71,1.1-7.45,2.1-11.18,3.16-1.05.3-2.08.68-3.14,1-1.63.42-2.15,1.51-2.25,3.08-.12,2.08-.44,4.15-.65,6.22s-.39,4.15-.6,6.22c-.09.89-.21,1.78-.36,2.66-.42,2.35-.9,4.69-1.31,7-.37,2.16-.78,2.46-3.48,2.07a10.1,10.1,0,0,1,.37-7.13,11.25,11.25,0,0,0,1.21-4.27c.21-3.57.49-7.14.71-10.71.06-.89,0-1.78,0-2.86A9.24,9.24,0,0,0,230,118a57.28,57.28,0,0,0-16,1.55,5.87,5.87,0,0,1-1.19.15c-3.71.23-7.18,1.55-10.74,2.43a10.17,10.17,0,0,1-2,.54c-3.79.05-6.81,1.76-9.71,4a52.2,52.2,0,0,1-5.4,3.15c-1.19.7-2.34,1.48-3.5,2.23a9.58,9.58,0,0,1-1.73,1.17c-3.29,1.2-6.1,3.26-9,5.09a9.3,9.3,0,0,1-1.68.6,5.35,5.35,0,0,0-1.64.68c-3.21,2.74-7.11,4.35-10.67,6.5-2.79,1.68-5.75,3.09-8.52,4.86-1.15.74-2.53,1.1-3.76,1.73-4.87,2.47-9.7,5-14.58,7.44-1.87.93-3.84,1.62-5.82,2.44-.87,2.37-.37,4.78-.1,7.1.41,3.54,1.2,7.05,1.79,10.58a16.93,16.93,0,0,1,0,1.75,6.12,6.12,0,0,0,.25,2,5.45,5.45,0,0,1,.44,2.88,21.27,21.27,0,0,0,.27,3.25,2.21,2.21,0,0,1-1.66,2.48,2.25,2.25,0,0,1-2.6-1.52c-.72-2.28-1.29-4.6-1.87-6.91a16.54,16.54,0,0,1-.64-7.37,13,13,0,0,0-.14-3.57c-.15-1.78-.39-3.56-.54-5.34-.19-2.28-.86-2.9-3-2.48-2.74.54-5.44,1.25-8.18,1.73s-5.49.91-8.26,1.13c-3.56.28-7.15.32-10.72.5-1,.05-2,.21-3.15.35a34.06,34.06,0,0,0-1.57,3.5c-1.32,4.17-2.55,8.37-3.83,12.55-.32,1-.7,2.06-1,3.1a9.44,9.44,0,0,0-.64,2.59,16.23,16.23,0,0,1-1.82,6.83,11.72,11.72,0,0,0-.48,1.69,2.2,2.2,0,0,1-2.57,1.87c-1-.07-1.6-.67-1.83-2a1.69,1.69,0,0,1,0-.59c.52-2.6.11-5.39,1.35-7.83a91.32,91.32,0,0,0,4.33-11.41,12.16,12.16,0,0,0,.29-1.46c.51-2.53.77-5.1,2-7.48.75-1.48.33-2.34-1.14-3.19a14.67,14.67,0,0,0-2.68-1.29,14.91,14.91,0,0,1-5.25-2.77,4.4,4.4,0,0,0-3.33-1c-1.29.1-2.59.06-3.88.18-4.65.43-7.83-4.78-5.79-8.28a21.16,21.16,0,0,0,1-2.81A7.78,7.78,0,0,1,60.2,149a4.7,4.7,0,0,0,1.21-3.82c-.26-3.06-.51-6.13-.49-9.19a56.19,56.19,0,0,1,.72-6.81c.16-1.27.41-2.54.64-3.81q.27-1.45.6-2.91a22.34,22.34,0,0,0,.78-3.18,16.1,16.1,0,0,1,1.74-6.87,5.12,5.12,0,0,0,.31-1.45,42.59,42.59,0,0,1,.88-4.36,74.52,74.52,0,0,1,2.91-8.45c1.08-2.43,1.38-5.16,3-7.34a7.89,7.89,0,0,0,.81-2.23c.33-.94.62-1.89,1-2.81.56-1.36,1.59-2.54,1.57-4.13a.5.5,0,0,1,.12-.27c2.94-3.91,3.72-9,7-12.71.2-.22.49-.46.52-.72.37-2.83,2.58-4.53,4-6.7.38-.57.86-1.1,1.19-1.7a21,21,0,0,1,5.7-6.32c1.35-1.07,2.93-2.08,2.94-4.22a2.54,2.54,0,0,1,1.8-2.22C100.71,46.16,102.24,45.73,103.61,45.27Zm188,53.53c2.34-.73,2.34-.73,2.1-2.65a3.88,3.88,0,0,0-2,2.72c-.49.35-1.15.61-.41,1.46Zm-21.72.9c1.6.45,2.7.85,3.44,2.37a4.84,4.84,0,0,0,6.46,1.91c.72-.33,1.33-.9,2.05-1.21a17.3,17.3,0,0,0,8.82-8,14.52,14.52,0,0,0,.85-2.22,6.07,6.07,0,0,1,2-3.43l2.45.2c.91,2,.2,4.67,2.4,5.81,2.37-1.06,4.57-2.15,6.87-3,1.72-.66,2.2-.51,3.21,1.1A8.78,8.78,0,0,0,313.56,97c2.47.73,5,1.29,7.52,1.86a7.29,7.29,0,0,0,2.94.31c2.52-.52,5-1.25,7.49-2,1.33-.38,2.64-.85,4-1.28,2.91-1,5.89-1.67,8.45-3.55,1.66-1.23,3.57-2.13,5.35-3.21a13.33,13.33,0,0,0,2-1.33c1.86-1.62,3.71-3.26,5.5-5,1.35-1.28,2.66-2.62,3.88-4s3-2.09,3.08-4.17c0-.17.46-.32.7-.48,1.7-1.1,1.74-1.29.87-3.61a3.79,3.79,0,0,0-2.86.1c-3.3,1-6.72,1.7-9.93,3.06-3.94,1.65-7.9,3.25-11.86,4.85-.92.37-1.86.69-2.8,1a11.13,11.13,0,0,1-5.29.29,8.09,8.09,0,0,0-5,.46c-2.47,1.26-4.85,2.7-7.3,4a25.88,25.88,0,0,1-3.52,1.6c-3.58,1.29-6,.55-8.37-2.42-.19-.23-.32-.5-.51-.73a13.62,13.62,0,0,1-2.39-5.74A9.47,9.47,0,0,0,304,72.8a15.08,15.08,0,0,0-1.18,1c-1.76,1.89-3.48,3.81-5.26,5.68-1.3,1.36-2.64,2.69-4,4-2,1.89-4,3.85-6.24,5.54s-5,3.25-7.41,5a14.53,14.53,0,0,1-7.52,2.54A8.25,8.25,0,0,1,266,94.64a40.61,40.61,0,0,1-8.44-10c-2.1-3.35-3.79-7-5.68-10.45-.76-1.39-1.57-2.75-2.34-4.14a13,13,0,0,1-.95-1.81c-.76-1.94-1.51-3.89-2.19-5.86-.55-1.59-1-3.21-1.48-4.82a3.1,3.1,0,0,0-1.57-2.25A22.67,22.67,0,0,1,241.76,63a9.6,9.6,0,0,0-.33,2.36c-.24,2.18-.41,4.36-.73,6.53-.53,3.63-1.29,7.24-1.71,10.89s-.53,7.14-.73,10.71a8.89,8.89,0,0,0,.41,2c1.73-.63,3.23-1.14,4.7-1.72a52,52,0,0,1,7.42-2.15,9.54,9.54,0,0,1,5,.21,7.32,7.32,0,0,1,4.74,4.23,10.42,10.42,0,0,1,.83,5.82c-.32,1.89-.63,3.92.34,5.94a16.1,16.1,0,0,1,1.8-1.54c.74-.48,1.58-.82,2.5-1.29.12-.92-.08-2.17,1-2.54C268.42,102,268.9,100.79,269.87,99.7Zm-85.28,27.74c-.27-.23-.42-.46-.53-.44-2.86.33-5.75.49-8.55,1.09-4,.85-7.85,2.13-11.82,3-3.28.75-6.61,1.39-9.95,1.81-5.83.73-11.64,1.51-17.17,3.63a10.31,10.31,0,0,1-1.43.45,50.79,50.79,0,0,0-9.49,3.37c-2.23,1-2.89,2.21-2.75,4.64a15,15,0,0,1,0,2.68,37.47,37.47,0,0,0,.64,10.67,7.2,7.2,0,0,0,.5,1.33,3.13,3.13,0,0,0,1-.08c1.58-.82,3.16-1.66,4.71-2.54,1.9-1.07,3.7-2.35,5.68-3.25,5.4-2.46,10.72-5.08,15.93-7.91,4.61-2.49,9.16-5.08,13.78-7.56,5.07-2.72,10.06-5.6,15.08-8.42C181.68,129.14,183.11,128.3,184.59,127.44Zm-70.52,14.81,3.94-1.68a12.36,12.36,0,0,0,.53-6,23.19,23.19,0,0,1-.15-2.37L117.52,115c-.14-2.58-.29-5.15-.43-7.72,0-.5,0-1-.08-1.49-.33-5.25-.65-10.49-1-15.74a33.26,33.26,0,0,0-.87-5.71c-.52.23-1,.29-1.17.56a13.93,13.93,0,0,0-1.41,2.6C110,94,108,100.78,105,107.15a19,19,0,0,0-.59,2c-.93,2.83-1.57,5.79-2.88,8.43-1.66,3.32-2.3,7-3.75,10.33a2.6,2.6,0,0,0-.18.87A2,2,0,0,0,99,131.06a26.59,26.59,0,0,1,3.07,1.09,8.87,8.87,0,0,0,3.94,1.13,4.26,4.26,0,0,1,4.24,3.08A13.24,13.24,0,0,0,114.07,142.25Zm-9.15-4.51a10,10,0,0,0-5.41,3.69,14.51,14.51,0,0,1-3.38,3.3,13.58,13.58,0,0,0-5.47,7.56c-.74,2.26-1.38,4.55-2,6.83-.39,1.33-.79,2.67-1.1,4s.18,1.84,1.49,2a41.24,41.24,0,0,0,4.14.45,48.18,48.18,0,0,0,12.44-.85c3.27-.75,6.45-2,9.88-2.06a6.15,6.15,0,0,0,2-.78C116.58,153.29,109.3,140.44,104.92,137.74Zm-14.76-3.38c-2.25-1.14-4-.35-5.68.44-.89.42-1.72.95-2.61,1.35a40.17,40.17,0,0,0-4.61,2c-2.62,1.59-5.13,3.38-7.63,5.16a16.64,16.64,0,0,0-2.13,2.07,6.14,6.14,0,0,0-1.64,5.48A11.9,11.9,0,0,0,70,158.11a23,23,0,0,0,2.42-.82c2.86-1.38,5.71-2.78,8.52-4.25a21.39,21.39,0,0,0,3.48-2.22,5.2,5.2,0,0,0,1.6-2.09c.72-1.94,1.25-4,1.85-5.95s1.25-4.17,1.85-6.26C89.85,135.88,90,135.21,90.16,134.36Zm147-20.2c2.69-.93,4.9-1.75,7.15-2.46,1.41-.44,2.87-.73,4.32-1.08l4-1a14.75,14.75,0,0,0,4.86-1.89c0-2.94.14-5.91,0-8.87-.21-3.6-2.59-5.38-6.12-4.54-3,.71-5.89,1.74-8.81,2.68-1.11.36-2.16.92-3.25,1.34A3.16,3.16,0,0,0,237.2,101a61.07,61.07,0,0,0-.6,11A9.34,9.34,0,0,0,237.15,114.16Zm-4.66.6c.14-.24.22-.32.23-.41.6-3.91-.06-7.94,1.21-11.79.21-.64-.82-1.16-1.51-.79-.95.51-1.86,1.11-2.82,1.58-1.78.86-3.69,1.49-5.36,2.51-3.8,2.32-7.48,4.85-11.23,7.24a41.15,41.15,0,0,1-3.64,2,7.44,7.44,0,0,0-3,2.61,4.18,4.18,0,0,0,1.3.27c1.65-.31,3.29-.68,4.93-1a17.36,17.36,0,0,1,2.88-.66,10.63,10.63,0,0,0,4.05-.8,3.35,3.35,0,0,1,1.44-.26,51,51,0,0,1,7.11.22A7.57,7.57,0,0,0,232.49,114.76ZM382.82,52.41c-1.47,2-2.87,4-4.41,5.94-1.92,2.39-3.57,5-5.27,7.49-.26.37,0,1.06,0,1.68l3.39.52a7.14,7.14,0,0,0,4.58-.71c2-1.07,4-2.12,6-3.2.16-.08.25-.29.6-.72-.14-.62-.28-1.48-.5-2.31-.56-2.1-1.28-4.17-1.72-6.3-.72-3.49-1.26-7-1.9-10.53,0-.23-.36-.41-.55-.62C381.31,45.75,381.22,48.22,382.82,52.41ZM259.26,119.49c2,0,3,0,4-1a38.32,38.32,0,0,1,9.23-5.9c2.73-1.39,4.92-3.71,8-4.53.21-.06.29-.6.45-.95-3,.16-5.89.25-8.73.5a5.18,5.18,0,0,0-2.75.94,5.68,5.68,0,0,1-4.34,1.57l1.91,2.19c-2.11,3.39-3.06,3.59-6.87,1.44A12.54,12.54,0,0,0,259.26,119.49ZM73.59,160.2A8.66,8.66,0,0,0,82,163.59c.31-1.23.72-2.54,1-3.88s1.39-2.58.86-4.41C80.25,157,76.5,157.68,73.59,160.2Zm27.55-24.34c-.37-.57-.55-1.17-.9-1.31a5.58,5.58,0,0,0-2.56-.55,2.8,2.8,0,0,0-2.56,2.15c-.31,1.24-.71,2.45-1,3.69a1.36,1.36,0,0,0,.75,1.85C96.82,139.86,98.84,138,101.14,135.86Zm17.76,16.53.5-.12c-.21-2.14-.41-4.28-.63-6.42,0-.19-.06-.47-.18-.55a4,4,0,0,0-1.48-.71c-.69-.07-1.06.52-1,1.16a5.09,5.09,0,0,0,.34,2C117.17,149.32,118.06,150.85,118.9,152.39Zm-54.13,6c-.53-1.82-.92-3.57-2.63-4.94a5.09,5.09,0,0,0-.38,4.57A3.1,3.1,0,0,0,64.77,158.38Zm330.5-74c.26-.93.54-1.77-.56-2a1.32,1.32,0,0,0-1.07.76C393.43,84.19,394.12,84.48,395.27,84.39Z" transform="translate(400.39 -19.54)"/><path d="M1324.29,54.48c2.07.21,3.24-.81,4.36-1.76a53.64,53.64,0,0,1,13.52-8c2.83-1.23,5.54-2.7,8.37-3.92A74.3,74.3,0,0,0,1359,37a5.41,5.41,0,0,1,2.63-.36,1.11,1.11,0,0,1,.92,1.74,3.19,3.19,0,0,1-1.19,1.25,51.16,51.16,0,0,1-8.15,3.59,67.06,67.06,0,0,0-8,3.25,87.13,87.13,0,0,0-8.18,4.15c-2.73,1.62-5.28,3.54-7.88,5.35a3,3,0,0,0-1.14,3.69c.19.57.38,1.13.55,1.7.76,2.51-.66,4.09-3.3,3.6a17,17,0,0,1-2.86-.84,2.15,2.15,0,0,1-1.49-2.58,1.93,1.93,0,0,1,.26-.84c1.55-2.07.66-4-.41-5.84a12.59,12.59,0,0,1-1.82-4.35,2.85,2.85,0,0,0-.34-.83c-2.14-4-2.86-8.43-3.72-12.82a14.91,14.91,0,0,0-1-2.26,23.25,23.25,0,0,0-1.24,2.5,19.12,19.12,0,0,1-3.23,6,27.44,27.44,0,0,0-2.55,4,11.14,11.14,0,0,0-.66,2c1.42.72,2.7.29,4,.18a21.79,21.79,0,0,1,2.66-.27,1.34,1.34,0,0,1,1.06,2.17,4,4,0,0,1-1.55,1.32,57.94,57.94,0,0,1-6.9,2.8,11,11,0,0,1-4.14.14,4,4,0,0,0-2.8.71,36.68,36.68,0,0,0-3.84,2.78,103.48,103.48,0,0,1-9.29,7.86c-3.46,2.5-7.23,4.56-10.87,6.8-4.25,2.6-9,4.27-13.23,6.86a21.43,21.43,0,0,1-7.14,2.92,22.86,22.86,0,0,0-5,1.88,7.12,7.12,0,0,1-4.66.4,2.84,2.84,0,0,1-2.36-1.57c-.54-1.31-1.65-1.58-2.91-1.65-3.82-.22-5.44.84-7.14,4.49-.87,1.87-1.5,3.9-3.43,5.12a2.43,2.43,0,0,0-.92,1.76,4.65,4.65,0,0,1-1.75,3.35c-2,1.9-4.08,3.81-6.28,5.5s-5,1.24-7.33-.89c-1-.94-1.93-2-2.92-3-.7-.69-1.45-1.33-2.14-2-3,.64-5.07,2.61-7.27,4.27a8.65,8.65,0,0,0-1.53,1.43c-1.54,1.86-3.32,3.1-5.92,2.65a2.47,2.47,0,0,0-1.44.29q-2.25,1.16-4.43,2.44a4,4,0,0,0-2.08,3.72c.14,5-.59,9.92-.83,14.88-.08,1.88.22,3.78.27,5.67a39,39,0,0,1-.08,5.07,6.33,6.33,0,0,1-1.08,2.7,1.19,1.19,0,0,1-2.12-.4,11.5,11.5,0,0,1-.54-2.32c-.58-4.74-1.07-9.49-1.73-14.22a54.9,54.9,0,0,1-.34-9.24,13.87,13.87,0,0,0-.22-2c-3,.31-6-.5-8.71,1.27-4.19.87-8,3.14-12.28,3.63a2,2,0,0,0-.86.21c-2.73,1.85-6,2.28-8.94,3.67a9.39,9.39,0,0,0-2.67,1.87q-5.71,5.87-11.3,11.86a86.88,86.88,0,0,1-6.81,6.62c-1.94,1.68-3.71,3.55-5.58,5.32q-3.78,3.58-7.59,7.14c-.72.68-1.47,1.33-2.22,2-3.46,3-7,5.92-10.37,8.94-4.87,4.3-10.59,7.42-15.72,11.34a8.22,8.22,0,0,0-2,2.1c-1.34,2.14-1.55,2.27-4,1.51a6.5,6.5,0,0,0-.79-.12c-5.39,3.38-11.61,4.69-18,5.45a30.44,30.44,0,0,1-17.92-3.44c-1-.49-1.84-1.21-3.26-1a7.14,7.14,0,0,0-.91,2c-.36,2.45-.64,4.92-.8,7.4s-.13,4.75-.2,7.13c0,1.53-1.08,2.28-2.32,2.81a1.63,1.63,0,0,1-2.32-1.51,5.88,5.88,0,0,1,.1-1.18,10,10,0,0,0,.27-1.77c-.33-5.45,1.82-10.53,2.39-15.85a7.88,7.88,0,0,0-1.37-5.87,35,35,0,0,1-4.29-8.1c-2.6-6.91-2.63-14-2.69-21.19a53.73,53.73,0,0,1,1.53-13.61c.23-.95.19-2,.33-3,.18-1.26.39-2.53.63-3.79a17.53,17.53,0,0,0,.44-1.73,44.2,44.2,0,0,1,3.4-12.93,21.19,21.19,0,0,0,.91-3.16,48.7,48.7,0,0,1,4.85-12.45c1.68-3,3-6.27,4.58-9.37.85-1.69,1.56-3.6,2.86-4.87,2.49-2.41,4.17-5.44,6.8-7.79a30.94,30.94,0,0,1,7.78-4.73,11.46,11.46,0,0,1,7-.82,10.52,10.52,0,0,1,4.25,1.93c3.43,2.56,5.55,5.9,5.56,10.37,0,2.09.27,4.18.36,6.27a14.83,14.83,0,0,1-.07,3c-.59,3.62-1.24,7.24-1.9,10.85-.17.91-.19,2-1.49,2.44a4.8,4.8,0,0,1-.29-3.51c.28-1.67.8-3.3,1-5a58.76,58.76,0,0,0,0-13.71c-.39-3.87-2.69-6.55-5.38-9a3.85,3.85,0,0,0-2.46-1,23.21,23.21,0,0,0-6.74.72A15.55,15.55,0,0,0,1052.9,75c-1.67,2.33-3.55,4.52-5.27,6.82a19.05,19.05,0,0,0-1.2,2.39q-3,5.81-6.11,11.6c-.09.18-.2.35-.27.53-1,2.89-2,5.79-3.07,8.68-.73,2.06-1.6,4.09-2.16,6.19-.88,3.26-1.6,6.57-2.32,9.88a127.81,127.81,0,0,0-2.41,13.49,107,107,0,0,0-.18,21.47c.38,4.13,2.08,7.86,3.89,11.53.6,1.22,1.33,2.38,2.17,3.89a6.26,6.26,0,0,0,.83-1.42c1-5.28,1.88-10.58,2.88-15.86.59-3.13,1.33-6.23,2-9.35.29-1.46.48-2.94.68-4.41.08-.59,0-1.2.12-1.79.85-5.3,1.75-10.59,2.56-15.9.71-4.62,1.32-9.26,2-13.89.66-4.43,1.39-8.85,2-13.28a25.25,25.25,0,0,0,.24-3.25c0-1.45.75-2.42,1.72-2.24s2.2,1.7,1.83,2.72c-2.18,6-1.84,12.36-3.31,18.44a65.66,65.66,0,0,0-1,8.9c0,.13.18.28.37.56a31.5,31.5,0,0,0,2.31-6.77,99.16,99.16,0,0,1,8.06-19.54c.91-1.77,1.81-3.55,2.87-5.23.92-1.44,1.08-1.4,3.41-.86.94,2.73,2.35,5.38,2.66,8.41a5.69,5.69,0,0,0,.46,1.72c1.34,2.93,1.8,6.1,2.46,9.21.44,2,.61,4.12.86,6.2.47,3.84.89,7.69,1.38,11.54.16,1.28.5,2.53.74,3.8.86,4.59,1.71,9.17,2.59,13.85a6.74,6.74,0,0,0,5.46,0c2.72-1.16,5.26-2.76,8-4,3.18-1.44,6-3.45,9.11-5.05.93-.48,2.1-.52,3-1.06s1.21-1.66,2-2.07c3-1.48,6.08-2.86,9.21-4.09a13,13,0,0,0,4.76-2.71,2.66,2.66,0,0,0,3.22.38c2.57-1.51,5.54-1.47,8.34-2,2.23-.45,4.51-.64,6.78-.92a14.1,14.1,0,0,0,9-4.23,3.91,3.91,0,0,1,1.39-1.09,10.18,10.18,0,0,0,3.7-3,13.76,13.76,0,0,1,4-3,19.54,19.54,0,0,0,4.33-3.11,9.22,9.22,0,0,1,4.49-2.2c1.08-.2,2.13-.53,3.2-.76a5.19,5.19,0,0,1,5.79,2.08,3,3,0,0,0,3.83,1.32,29.7,29.7,0,0,1,3-.57c2.12-1.81,2.77-4.38,2.86-7.3.09-3.38.43-6.75.74-10.12.8-8.91,1.64-17.83,2.46-26.74.12-1.39.16-2.78.31-4.17.11-1,.17-1,2-1.55,5.41,9.25,9.94,19.05,15.87,28.14l3.18-1.39a11.52,11.52,0,0,1,1.11,1.07c1.16,1.48,2.26,3,3.44,4.48.82,1,1.38,1.15,2.56.37,2.41-1.58,4.89-3,7.43-4.37a24.78,24.78,0,0,1,7.19-2.85,3.84,3.84,0,0,0,3.08-2.51c.71-1.75,1.37-3.52,2-5.3a4.77,4.77,0,0,1,1.79-2.66c1.52.09,2.1,1.25,2.68,2.43.48,1,1,2,1.48,2.92a19.12,19.12,0,0,0,1.09,1.66,6.74,6.74,0,0,0,1.51-.69,104.39,104.39,0,0,1,9.72-8.73,10.34,10.34,0,0,1,6.57-2.35c4.29-.09,8.51-.59,12.43-2.57a8.49,8.49,0,0,1,2-.64c4.8-1.06,9.17-3.24,13.58-5.26,3-1.39,5.86-3.31,8.81-4.88,4.32-2.3,7.13-5.87,9.92-9.67a46.42,46.42,0,0,0,5.95-11.27,39.72,39.72,0,0,0,1.92-8.7,14.07,14.07,0,0,1,.74-3.17,1.64,1.64,0,0,1,1.86-1.18,1.75,1.75,0,0,1,1.36,2c-.07,2.49-.26,5-.24,7.46a15.66,15.66,0,0,0,.58,4.09c1.29,4.59,2.61,9.17,4.07,13.7C1322.18,49.71,1323.3,52.05,1324.29,54.48Zm-270.14,104c1.56-2,4-2.91,6-4.27,1.23-.81,2.53-1.51,3.78-2.3,1-.63,2-1.33,3-2a14.3,14.3,0,0,0,3.23-2.44c-2.22-.92-6.14-1.19-7.72-.63-.19.07-.37.16-.55.24-2.44,1.08-4.89,2.13-7.29,3.28a13.41,13.41,0,0,0-2.72,1.81,28.41,28.41,0,0,0-3.49,3.26,7.68,7.68,0,0,0-2.24,5.44c1.78-.91,3.48-.71,5-1.5a18.9,18.9,0,0,1,3.09-1,22.48,22.48,0,0,0-2.08,2.06c-2.05,2.63-4.88,2.74-7.81,2.49a16,16,0,0,1-1.95-.44L1039.65,174a2.41,2.41,0,0,0,1.17,2.82c1.7,1,3.53,1.83,5.19,2.9,3.28,2.1,7,2.17,10.63,2.28,2.36.07,4.73-.38,7.1-.53a32.52,32.52,0,0,0,12.2-3.47,2.68,2.68,0,0,0,1.69-2.58,17.85,17.85,0,0,0-.07-1.79c-.62-5-1.13-10.08-1.92-15.08a19,19,0,0,0-2.72-8,3.23,3.23,0,0,0-3.89,1,16.84,16.84,0,0,1-2.14,1.53c-1.79,1.39-4.13,1.79-5.81,3.4a5.93,5.93,0,0,1-4.86,1.81A10.52,10.52,0,0,0,1054.15,158.48ZM1139,124.2a15,15,0,0,0-2.17-.09q-6.36.86-12.7,1.77a11.4,11.4,0,0,0-2.62.54c-3.12,1.28-6.37,2.26-9.46,3.54-4.65,1.93-9,4.49-13.54,6.79a2.47,2.47,0,0,0-.7.55c-2.82,2.95-6.87,3.86-10.18,6a15.38,15.38,0,0,1-6.75,2.14,3.37,3.37,0,0,0-3.16,3.7,14.14,14.14,0,0,0,.73,5,29.13,29.13,0,0,1,1.49,5.75c.31,1.75.4,3.57,1.4,5.14a1.44,1.44,0,0,1,.23,1.13c-.91,2.05.67,3.61,1,5.4a1.32,1.32,0,0,0,2.08.95,19.3,19.3,0,0,0,3.82-2.28c3.61-3,7.77-5.08,11.56-7.75a29.54,29.54,0,0,0,2.79-2.19,75.45,75.45,0,0,1,5.72-5.19,58.24,58.24,0,0,0,7.48-6.71c2.83-2.92,5-6.43,8.53-8.71.48-.31.75-.92,1.15-1.36,2.42-2.75,4.53-5.79,7.57-7.95a3.15,3.15,0,0,0,1-1.06C1135.15,127.33,1136.81,126.06,1139,124.2Zm-66.12,19.85a35.93,35.93,0,0,0,0-4.76c-.54-4-1.24-8-1.89-12.06-1.09-6.66-2.16-13.33-3.31-20-.29-1.65-.86-3.24-1.25-4.87a10.78,10.78,0,0,1-.36-2.31c0-2.45-1.27-4.44-2.28-7.07a31.54,31.54,0,0,0-2.21,3.29c-1.23,2.49-2.37,5-3.49,7.57a145.12,145.12,0,0,0-6.45,18.57c-1.2,4.1-2.17,8.26-3.19,12.41-1.41,5.79-2.81,11.58-4.14,17.38-.35,1.53-.44,3.12-.72,5.27.63-.73.86-1,1.11-1.27,1.83-1.95,3.37-4.33,5.55-5.72,3.48-2.22,6.78-4.83,10.84-6.14a13.65,13.65,0,0,1,5.2-1C1068.39,143.53,1070.55,143.81,1072.85,144.05Zm126.68-48.17c.74-1.22,1.42-2.21,1.94-3.27a4.51,4.51,0,0,0-.16-4.8c-1.08-1.66-2.09-3.38-3-5.12-2.49-4.64-4.91-9.31-7.37-14a8,8,0,0,0-1-1.81,8.32,8.32,0,0,0-1.89-1.13c-.31,3.25-.75,6.09-.84,9-.24,8-1.09,15.87-1.81,23.79-.11,1.24-.39,2.57.52,3.6,1.16.27,1.82-.43,2.54-.92a8.52,8.52,0,0,1,1.66-1.22,13.81,13.81,0,0,0,4-2.49A6.4,6.4,0,0,1,1199.53,95.88Zm46.26-12.69c3-.37,6-.18,8.53-2.23a8.86,8.86,0,0,1,2.22-.82c2.27-.93,4.54-1.89,6.8-2.85a1.47,1.47,0,0,0,.45-.38c1.58-1.64,3.13-3.33,5.57-3.65,4.06-2.47,8.14-4.91,12.17-7.43a11.11,11.11,0,0,0,3.37-3.07,13.53,13.53,0,0,0-1.88.34c-.84.33-1.61.8-2.45,1.1q-5.17,1.85-10.37,3.61a30.62,30.62,0,0,1-5.67,1.74,17.66,17.66,0,0,0-4.06.57,2.67,2.67,0,0,1-1.76.09c-1.54-.55-2.61.18-3.83,1a79.17,79.17,0,0,0-10,8c-.48.44-.94.9-1.51,1.45Zm-16.6,2.09A54.84,54.84,0,0,0,1217.45,90c-.35.19-.7.37-1,.59-1.44,1-1.51,2.28-.12,3.38a13.51,13.51,0,0,0,2,1.09c-.15,1.4-1,1.78-2.06,2.07-1.7-.55-2.8-2.53-5.44-2.2,1.38,3.08,3.85,4.54,6.38,6.3.9-.94,1.62-1.73,2.39-2.47,1-1,2.14-2,3.22-3a6.79,6.79,0,0,0,1.07-1q2.43-3.74,4.76-7.53A11.48,11.48,0,0,0,1229.19,85.28Zm-59.35,24.81c-.1-3.07-.84-3.81-3.44-3.45a8.74,8.74,0,0,0-2.88.74,26.19,26.19,0,0,0-7.91,5.74,6.6,6.6,0,0,0-.67,1.6,13.75,13.75,0,0,0,3.25-.51c3.26-1.49,6.76-2.23,10.08-3.5C1168.81,110.51,1169.34,110.28,1169.84,110.09ZM1236,78.5a1.7,1.7,0,0,0-1.07,2.24c.59-.28,1.28-.39,1.44-.74S1236.2,79.06,1236,78.5Zm-27.11,13.9c0-1.32-.33-2-1.47-2.16C1207.3,91.43,1207.58,92.1,1208.93,92.4Zm-4.63,3.48a1.37,1.37,0,0,0,.2-2.12C1203.74,94.48,1203.5,95,1204.3,95.88Zm22.13-1.69c-.07,0-.17,0-.2.09s0,.14,0,.21.16,0,.2-.1S1226.44,94.25,1226.43,94.19Z" transform="translate(400.39 -19.54)"/><path d="M620.51,699.17a7.58,7.58,0,0,1-2.68,3.84c-3.25,2.92-6.31,6-9.85,8.19-1,1.78.55,4.16-2.28,5.38l-1.62-2.49a45.33,45.33,0,0,0-5.18,2c-4.23,2.26-8.76,2.49-13.37,2.22a13.52,13.52,0,0,1-3.49-.7,24,24,0,0,1-8.07-4.42,25.34,25.34,0,0,1-4.08-5.46c-2.57-4-3.66-8.57-5.11-13a10.06,10.06,0,0,1-.34-2.64c-.23-5.06-.58-10.13-.6-15.19a146.91,146.91,0,0,1,1-20.53,38.8,38.8,0,0,1,1.75-7.2,10.66,10.66,0,0,0,.64-2.3c.25-3.14,1.83-5.85,2.74-8.78A23.18,23.18,0,0,1,571.7,634a30.36,30.36,0,0,1,5.64-8c3-2.78,8.42-2.18,10.86,1.07,1.44,1.9,2.78,3.9,2.86,6.44,0,.93.07.93-1,2.57l-2.19-7a7.84,7.84,0,0,1-1.41-.86c-1.29-1.16-2.64-1.76-4.31-.84-4.21-.1-6.55,2.58-8.14,5.91a57.33,57.33,0,0,0-4.9,14c-.29,1.55-1,3-1.24,4.58a133.56,133.56,0,0,0-2.13,22.83,108.82,108.82,0,0,0,1.4,18.39,33.22,33.22,0,0,0,4.09,12.08c.56.93.9,2,1.54,2.89,3.23,4.37,7.16,7.58,13,7.56,1.29,0,2.58.23,3.86.22,3.76,0,7.2-1.34,10.62-2.69a19.08,19.08,0,0,0,2.83-1.75c-.26-1.62-.44-3.09-.75-4.53-.93-4.27-1.84-8.55-2.87-12.8-.86-3.57-1.85-7.11-2.83-10.66a10.61,10.61,0,0,0-.9-1.86c-.14-.26-.5-.5-.48-.72.19-2.09-.79-3.86-1.4-5.74a1.78,1.78,0,0,1,.53-1.51,1.15,1.15,0,0,1,1.81.3c.72,1.15,1.74,2.08,1.88,3.64a27.7,27.7,0,0,0,1.14,4.93c.23.81.65,1.58,1.26,3a13.2,13.2,0,0,0,.42-2c0-2.38-.11-4.77-.09-7.16.06-6.56.05-13.12.3-19.68.11-2.66.57-5.32.43-8-.07-1.45.78-2.39,2.2-3a7.63,7.63,0,0,1,2.57,2.78,2,2,0,0,0-.56.09.86.86,0,0,0-.26.41s.14.2.19.19.36-.1.44-.22a1.25,1.25,0,0,0,.1-.55,1.93,1.93,0,0,1,1.49,2.26c0,1.24.33,2.19,1.72,2.32s1.58,1.41,2.29,2.18a12.59,12.59,0,0,1,3.41,5.9c1.09.15,1.67.88,2.17,2a46.06,46.06,0,0,0,2.92,4.84c-.5,1.65,1.42,2.06,1.77,3.39.3,1.1,1.55,1.94,2.53,3.08a19.21,19.21,0,0,0,1.94-1.29c2.49-2.13,4.94-4.31,7.4-6.46,1-.85,1.93-1.73,2.94-2.52a26.19,26.19,0,0,1,4.13-2.87,13.44,13.44,0,0,0,4.3-3.6,35.68,35.68,0,0,1,8.92-8.25,34.75,34.75,0,0,1,6-2.6c1.93-.78,3.89-1.48,5.83-2.23.46-.18.9-.57,1.36-.58,2.78-.07,4.75-1.86,7-3.16,2-1.16,3.95-2.29,5.85-3.54,5.54-3.63,5-3.73,4.17-8.93a76.89,76.89,0,0,0-4.41-16.7,13.55,13.55,0,0,1-.7-3.46A1.4,1.4,0,0,1,680,607a1.45,1.45,0,0,1,1.27.41c.63.76,1,1.73,1.65,2.48a66.81,66.81,0,0,0,10.36,9.81c1.6,1.25,1.8,1.27,3.37.15.72-.51,1.34-1.17,2-1.75,1.65-1.42,3.08-1.16,4.08.77a13.75,13.75,0,0,1,.55,1.68c.45,1.28.91,1.59,2.21,1.39.58-.09,1.15-.28,1.78-.43a5.49,5.49,0,0,1,1.15-1.54c3.15-2.07,6.33-4.1,9.57-6a28.32,28.32,0,0,0,4.72-3,6.17,6.17,0,0,0,2.09-3.8,33.53,33.53,0,0,1,1.73-6c.69-1.84,1.22-1.93,3.2-1.08.18.07.36.16.55.22a2,2,0,0,0,.47,0c1.5-1.19,3.28-2.16,4.83-3.61,1.72-1.6,3.84-2.83,6.48-2.35,1.72.31,3.06-.52,4.27-1.65,3.94-3.65,8-7.2,11.81-11a37,37,0,0,1,5.84-4.1,7,7,0,0,1,3.14-.81c2.24-.19,4.09-.79,4.86-3.2a3.35,3.35,0,0,1,.89-1.18A4.59,4.59,0,0,0,774,567.7c-.42-1.72-.63-3.53-1.84-5a5.08,5.08,0,0,1-.63-1.49,3.38,3.38,0,0,1,.22-.74c.6-.91,1.12-2,2.5-1.71a3.83,3.83,0,0,1,2.35,3.72,9.57,9.57,0,0,0,.37,5.84,7,7,0,0,1,0,2.27l1.7,1.11a18.16,18.16,0,0,1,.56,2.4,2.4,2.4,0,0,0,1.45,2.1,5,5,0,0,1,2,2.11c2.69,4,3.26,4.13,6.82,1,3.72-3.29,7.4-6.62,11-10.06a34.43,34.43,0,0,1,4-3c4-2.83,7.83-5.78,11.8-8.6,2.26-1.61,4.59-3.14,7-4.53a21.81,21.81,0,0,0,4.23-2.76c1.13-1.07,1.71-1,3.39.25a5.18,5.18,0,0,1-3.17,3.24,56.73,56.73,0,0,0-9.87,6c-3.37,2.57-7,4.83-10.44,7.31-2.1,1.5-4.14,3.09-6.13,4.72s-3.77,3.22-5.58,4.91-3.54,3.45-5.27,5.21c-2,2-2,3.58-.08,5.72.53.59,1.14,1.12,1.63,1.75a1.48,1.48,0,0,1-.66,2.42,2.63,2.63,0,0,1-1.72.2A28.66,28.66,0,0,1,785.4,590a2.22,2.22,0,0,1-.94-2.64c.65-2-.18-3.43-1.59-4.76a34.18,34.18,0,0,1-5.09-6.57c-.46-.73-1-1.4-1.66-2.27a7.59,7.59,0,0,0-1.23,1.11c-2.14,3.21-4.09,6.57-6.42,9.64a69.85,69.85,0,0,1-10.76,10.2,19.79,19.79,0,0,1-2.84,1.61c-.78.42-1.59.77-2.37,1.19a13.36,13.36,0,0,1-8.59,1.61,4.65,4.65,0,0,0-2.88.27c-2.34,1.1-4.7,2.17-7.08,3.16a4.88,4.88,0,0,0-2.26,1.81c-1.54,2.19-3.37,4.17-4.83,6.4s-2.27,4.43-3.56,6.55a95.92,95.92,0,0,1-5.89,9c-1.79,2.31-4.55,3.54-7.22,4.58a6.59,6.59,0,0,1-3.79-.19c-2.39-.65-4.71-1.56-7.23-2.42-2.75,1.49-5.92,2.36-8.58,4.38-2.3,1.76-3.3,3.56-2.13,6.09s.55,5.12,1.34,7.58c.1.3-.34,1-.67,1.13a1.33,1.33,0,0,1-1.15-.59,23.42,23.42,0,0,1-.85-3.14c-.36-1.55-.66-3.11-1-4.65a4.53,4.53,0,0,0-.71-1.06,10.61,10.61,0,0,0-1.31.87,70.53,70.53,0,0,1-5.06,5c-2.15,1.71-3.85,4-5.75,6a17,17,0,0,1-1.88,1.91c-3.74,2.9-7.15,6.25-11.45,8.37-2.13,1.05-4.35,1.92-6.55,2.82a3.29,3.29,0,0,1-1.74.34c-2.66-.52-4,1.23-5.38,3a12.51,12.51,0,0,0-1.62,2.49,8.27,8.27,0,0,1-2.82,3.77,1.5,1.5,0,0,0-.61.64c-.91,2.61-3,4.4-4.56,6.56s-3.42,4-5.3,6.23c.29.61.67,1.38,1.09,2.25-.24.55-.5,1.17-.88,2l2.32.42c2.92,2.76,3,3.09,1.92,5.65-1,.42-1.65-.17-2.3-.84a28.44,28.44,0,0,0-2.62-2.42,26.18,26.18,0,0,0-2.59-1.61l-4.2,3a4.33,4.33,0,0,1-2.34,3.48l.07.08c-.19-.19-.47-.59-.56-.55a4.08,4.08,0,0,0-2.11,2.16l1.45-.4Zm-15.48-6c.28-.25.81-.53.79-.75-.13-1.5.74-2.09,1.94-2.6a9.85,9.85,0,0,0,2.2-1.42c.86-.68,1.67-1.41,2.45-2.16a7,7,0,0,0,.8-1.19,5.7,5.7,0,0,0-1.07-.31,15.25,15.25,0,0,0-8.73,2.94c.32,1.53.46,3.12,1.53,4.41.21.25.11.76.16,1.16l-.76.22.24.35Zm86.08-64a6.64,6.64,0,0,0,1.23-1.57c.45-1.29.72-2.66,1.09-4.1a42.83,42.83,0,0,1-7.28-6.6c-.27-.3-.79-.39-1.54-.73a20.09,20.09,0,0,0,.17,2.64c.56,3,1.9,5.76,1.92,8.87,0,.92.93,1.47,2,1.23s1.75-.38,2.5.34l-.83.38.32.34C690.82,629.75,691,629.48,691.11,629.21Zm-74.75,53.23c.85-.83,1.52-1.52,2.23-2.18s1.51-1.28,2.19-2c1.34-1.38,1.36-1.67.39-3.35-2-3.53-4-7.09-6.11-10.55-1-1.59-1.87-3.26-2.94-4.75-2.18-3.06-4.68-5.9-7.07-8.81-.14-.16-.53-.1-.85-.16a252.42,252.42,0,0,0-.92,34.35C607.61,683.39,611.65,680.84,616.36,682.44Zm8.36-4.07a3.58,3.58,0,0,1,3.17,2.94,3.58,3.58,0,0,0,1,1.44c1.34,1.42,2.88,1.23,3.9-.39.73-1.17,1.53-2.31,2.34-3.43a63,63,0,0,0,4-5.49c2.21-3.87,4.69-7.55,7.18-11.23.88-1.31,1.85-2,3.47-1.6a6.25,6.25,0,0,0,4.38-.31c2.12-1.1,4.25-2.19,6.34-3.33,6.35-3.49,11.62-8.32,16.51-13.59a6.15,6.15,0,0,0,.64-1.63,13.06,13.06,0,0,0-2.05.92c-4.13,2.92-8.95,4.29-13.62,5.94-5.45,1.92-10.34,4.57-14,9.21a27.05,27.05,0,0,1-8.54,7.29,34.31,34.31,0,0,0-5.84,4.56c-1.72,1.49-3.08,3.6-5,4.58S626.07,676.72,624.72,678.37Zm-19,30c2,.36,2,.44,3-.36a66.94,66.94,0,0,0,5.62-4.87c3.06-3.11,6-6.36,8.91-9.6,1-1.08,1.84-2.29,2.75-3.43-1.64-4-5.22-4.32-8.61-5.15-.89.79-1.68,1.54-2.52,2.23-1.93,1.57-3.83,3.17-5.82,4.64-2.87,2.11-5.1,4.44-3.94,8.42.16.56.1,1.2.28,1.76A12,12,0,0,1,605.75,708.32ZM745.89,596.67a11.85,11.85,0,0,0,7-1.64,53.92,53.92,0,0,0,11.5-8.89c1.85-2,3.49-4.18,5.47-6.58a7.11,7.11,0,0,0-2-.3,23.19,23.19,0,0,0-4,1.32c-3.31,1.52-5.75,4.17-8.31,6.66-1.13,1.11-2.12,2.57-3.49,3.2-2.39,1.08-3.55,3.42-5.61,4.78C746.15,595.43,746.11,596.06,745.89,596.67Zm-39.8,28.06c1.27,2,1.78,2.23,3.2,1.39a59.37,59.37,0,0,0,9.2-6.87c.76-.67,1.56-1.54.91-2.94-4.25,1.66-7.51,4.83-11.57,6.58a3.86,3.86,0,0,0-1.16.9A4.68,4.68,0,0,0,706.09,624.73ZM626.17,684.8c.18-2.47-1.87-3.22-2.44-4.69-2.07-.4-2.62.71-2.9,2.42C622.6,683.08,624,684.5,626.17,684.8Zm71.74-62.24c2,2.32,2.21,2.38,4,1.19-.71-1.25-.53-3-2-3.94A3.58,3.58,0,0,0,697.91,622.56Zm-70.2,62.5c-1,.59-2.14-.08-3.15.85a3.16,3.16,0,0,0,3.15,1.23Zm68-58.26-.18-.38c-.07.05-.19.09-.2.15a2.36,2.36,0,0,0,0,.46Zm23-5.46c-.06-.06-.13-.15-.19-.15s-.16.07-.24.12a3.88,3.88,0,0,0,.31.26ZM626,680.3c-.06.06-.17.12-.17.18s.08.16.13.24l.29-.31Z" transform="translate(400.39 -19.54)"/><path d="M109.7,364.66c1.47,0,2.37.42,2.44,1.79a33.14,33.14,0,0,1,0,3.86c0,.69-.29,1.37-.34,2.06-.48,6-.82,12.11-1.45,18.14-.44,4.24-1.26,8.45-1.94,12.67-.55,3.41-1.12,6.82-1.41,10.67.7-.38,1.24-.49,1.4-.81,1.65-3.16,3.74-6.1,4.81-9.55.32-1,.6-2.1.89-3.15a8.78,8.78,0,0,1,.45-1.73c2.56-5,3.38-10.57,5.27-15.78,1.72-4.76,2.92-9.68,4.28-14.56.72-2.58,1.73-5.08,2.63-7.61.42-1.2.92-2.38,1.35-3.58,1.83-5.14,3.83-10.22,6.05-15.21a30.69,30.69,0,0,1,1.72-3.12c.2-.32.5-.74.82-.81a2.74,2.74,0,0,1,1.68.06,1.44,1.44,0,0,1,.57,1.23c-.75,5.35-.29,10.73-.58,16.09-.11,2.08,0,4.14,0,6.21a62.89,62.89,0,0,0,.41,8.21c.5,3.21,0,6.57.38,9.8.3,2.46.57,4.92.72,7.4.1,1.48.22,3,.3,4.46.21,4,1,6.3,3.67,10,3.28-1,6.76-.94,10.2-1.27a15.8,15.8,0,0,0,4.35-1c2.43-.95,5-1.16,7.48-1.88,5.51-1.6,11-3.31,16.49-5,1.78-1.49,4.2-1.54,6.15-2.74a19.58,19.58,0,0,1,3.62-1.36c1.49-.54,3-1.12,4.48-1.63,2.35-.78,4.71-1.53,7.06-2.29l7.36-2.36a5,5,0,0,1,1.13-.37c3.61-.21,6.86-1.87,10.32-2.59,4.29-.89,8.55-1.89,12.83-2.75,2.71-.54,5.37-1.17,8.05-1.84a32.62,32.62,0,0,1,5.58-.8c3.57-.23,7.15-.32,10.72-.47a1.06,1.06,0,0,0,.57-.1c1.79-1.38,4-1.62,6.05-2.39a16,16,0,0,0,3.28-2c1.79-1.22,3.49-2.61,5.35-3.71a18.28,18.28,0,0,1,3.76-1.17,3.81,3.81,0,0,1,1.8-2,27.5,27.5,0,0,0,3.4-2.39,8,8,0,0,1,1.81-1c2.57-.91,4.2-2.52,4.17-5.43a4.32,4.32,0,0,1,.09-1.19,28.31,28.31,0,0,0,1-7.66,2.12,2.12,0,0,1,1-2c.66-.38,1.57-.51,1.87.1.91,1.89,1.46,3.93,2.42,5.75a55.49,55.49,0,0,0,4.73,8.14,4.33,4.33,0,0,0,1.08,1c.73.5,1.51.92,2.44,1.48a13.28,13.28,0,0,0,2.88-2.05c.79-1,1.48-1.82,2.91-1.45a47.27,47.27,0,0,1,1.17-4.87c.79-2.24,1.76-4.42,2.72-6.59a1.4,1.4,0,0,1,1.63-1c1,.24.56,1.12.73,1.74,0,.08.13.13.3.3a10,10,0,0,0,4.84-1.84c2.52-1.92,5.4-2.82,8.3-3.78,2-.66,3.92-1.35,5.89-2a5,5,0,0,1,1.13-.32c1.34-.15,2.69-.26,4.06-.39.64,1.71.48,2.27-.89,2.61-1.73.43-3.47.88-5.23,1.16a23.15,23.15,0,0,0-6.91,2.48c-2.75,1.4-5.63,2.53-8.48,3.7a8.65,8.65,0,0,1-2.33.43,3,3,0,0,0-2.69,2,41.91,41.91,0,0,0-1.78,4.75c-.69,2.63-2.52,4.21-4.59,5.64-.49.34-1.07.55-1.52.92a3.26,3.26,0,0,1-2.83.61c-2.38-.51-4.5-1.44-5.87-3.68-1.18-1.94-2.55-3.76-4.07-5.95-.82,2-2,3.51-2,5.71l4.73.28c-.31,2.21-.67,2.67-2.26,2.44a8.22,8.22,0,0,0-3.82.35l-3.64,4.61c-.19.24-.49.44-.55.7-.47,2.3-2.63,2.58-4.23,3.37s-3,.31-3.4-1.81a15.54,15.54,0,0,0-2.18.87,77.84,77.84,0,0,1-16.45,7.64,9.84,9.84,0,0,1-2.31.55c-3.26.24-6.55.27-9.8.63a85,85,0,0,0-9.09,1.56q-11.22,2.53-22.37,5.3c-2.31.57-4.53,1.48-6.81,2.18-2,.61-4,1-6,1.72-4.5,1.6-9,3.19-13.42,5a195.09,195.09,0,0,1-20.92,7c-3.64,1-7.24,2.27-10.94,3-3.88.76-7.69,1.83-11.6,2.46a11.69,11.69,0,0,0-1.44.4c.3,2.88.64,5.63.84,8.39a50.61,50.61,0,0,1,.06,5.37,21,21,0,0,0,.59,6.8c.44,1.46.66,2.93-.69,4.16-.32.3-.37.9-.51,1.37s-.15.78-.29,1.15a2.23,2.23,0,0,1-2,1.6,1.86,1.86,0,0,1-2-1.47,32.06,32.06,0,0,1-1.08-4.63c-.68-4.72-1.29-9.46-1.9-14.19-.13-1-.16-2.1-.25-3.43a9.08,9.08,0,0,0-1.83.71c-2.66,1.92-5.26,3.91-7.93,5.82-1.53,1.09-3.14,2.09-4.74,3.09-1.76,1.11-3.57,2.13-5.33,3.23a14.76,14.76,0,0,1-6.4,2.27c-2.7.2-3.78,1.83-4.92,3.71a13.88,13.88,0,0,0-1.35,2.59,9,9,0,0,0-.73,3.44,18.08,18.08,0,0,1-.89,6.46c-.46,1.62-.73,3.3-1.16,4.94a4.49,4.49,0,0,1-.85,1.88,2.85,2.85,0,0,1-1.78.78c-.8,0-1.12-.71-1.29-1.42a2.42,2.42,0,0,1,0-.89c.45-2.74.92-5.48,1.39-8.21a4.22,4.22,0,0,0,.21-.87c-.16-3,.9-5.84,1.13-8.8s.79-5.91,1.19-8.86q.83-6,1.62-12.08c.34-2.56.61-5.12,1-7.68.2-1.37.56-2.72.84-4.08a23.5,23.5,0,0,0,.44-2.34c.41-3.95.79-7.91,1.18-11.87A3.83,3.83,0,0,0,108,381c-.42-3,.64-5.86.84-8.8a17.33,17.33,0,0,0,0-3A7.62,7.62,0,0,1,109.7,364.66Zm25.92,27a4.27,4.27,0,0,0,.79-3.31c-1-4.39-.49-8.89-1-13.31a37,37,0,0,1-.34-5.94,55.85,55.85,0,0,0-.23-7.43,49.47,49.47,0,0,1,.14-6.55c.11-2,.34-4,.47-5.95,0-.4.29-1-.39-1.14-1.2,2.44-2.39,4.82-3.55,7.23a10.78,10.78,0,0,0-.59,1.68c-1.5,4.93-3,9.86-4.49,14.77s-3.16,9.83-4.72,14.76c-1.23,3.88-2.42,7.77-3.64,11.66-.25.8-.46,1.57.77,2.13,1.58-1.28,3.18-2.73,4.94-3.95a26.7,26.7,0,0,1,5.41-3.09A47,47,0,0,1,135.62,391.65Zm-9,6.51a9.79,9.79,0,0,1-2,1.75c-2.36,1.21-4,3.29-6,4.88-3,2.32-4.37,5.59-5.85,8.83a43.76,43.76,0,0,0-1.81,5c-.62,1.93.33,3.11,2.31,2.92,1.48-.14,3-.23,4.1-1.46a3.67,3.67,0,0,1,1.83-.92,2.13,2.13,0,0,0,1.56-1.17,4.85,4.85,0,0,1,1.48-1.36c.56-.41,1.24-.65,1.77-1.07,2.23-1.77,4.24-3.88,7.29-4.22a1.25,1.25,0,0,0,.53-.26l5.92-4.59c.05-3.69-.51-8.17-1.25-10a7,7,0,0,0-3.65.71A12.1,12.1,0,0,1,126.61,398.16Zm17.88,19.89c-.11.28-.26.47-.22.59a3.55,3.55,0,0,0,.43.73c.08-.24.2-.43.16-.58A3.38,3.38,0,0,0,144.49,418.05ZM284.54,364a6.09,6.09,0,0,0-.46.61s.14.2.17.18c.23-.1.45-.23.67-.35Z" transform="translate(400.39 -19.54)"/><path d="M779,341.69c-.92,2.73-2.51,5.24-2.34,8.2a2.76,2.76,0,0,1-2.55,3.23c-1.87-2-4.2-1.72-6.53-.88a64.87,64.87,0,0,0-12.61,6c-4.79,3-9.67,5.89-14.67,8.54a82.62,82.62,0,0,1-10.68,4.6,23.42,23.42,0,0,1-16.35-.31c-2.23.41-3.79,2.29-5.48,3.94-1.91,1.87-3.73,3.84-5.59,5.76-1,1.06-2.31,1-3.77.84-2.77-3.14-4.28-7.07-6.28-10.71s-2.78-7.68-5-11.81c-1,2.53-1.45,4.65-2.1,6.69-.93,2.93-1.85,5.87-2.74,8.81-.41,1.33-.72,2.69-1.08,4-.79,3-1.56,6-2.37,8.92a16.23,16.23,0,0,1-1,2.83,21.4,21.4,0,0,0-2.14,8.24c-.16,2.8-1.79,4.78-4,6.33a2.3,2.3,0,0,1-3-.07,11.67,11.67,0,0,1-1.7-1.67A75.44,75.44,0,0,1,657,387.83c-.47-1-1.17-1.84-1.72-2.78a103.07,103.07,0,0,1-6.19-12.89c-.59-1.44-1-2.94-1.51-4.41-.87-.15-1,.45-1.11,1q-.63,5.49-1.19,11c-.27,2.67-.62,5.34-.73,8-.18,4.47-.18,8.94-.3,13.41,0,1-.28,2-.3,3,0,2,.05,4,.09,6a9.75,9.75,0,0,1,0,2.35c-.7,2.88-.31,5.76-.14,8.62a39.7,39.7,0,0,0,.93,5.26,6.58,6.58,0,0,1-.2,3.23,25.75,25.75,0,0,0-.41,3.22,3.07,3.07,0,0,1-.68,1.56,1.44,1.44,0,0,1-2.63-.77,59.19,59.19,0,0,1-.51-5.95c-.06-1.39.19-2.79.09-4.18-.29-4.36-.6-8.73-1.06-13.07-.28-2.67-.88-5.29-1.24-7.95-.31-2.26-.37-4.55-.75-6.79-.56-3.22-1.32-6.41-2.1-10.14-.8,1.6-1.39,2.76-2.13,4.21-.59-2.6-.21-11.77.49-14.13a3.87,3.87,0,0,1,3,3.19c.79,3.58,1.55,7.18,2.38,10.75.45,1.93,1,3.83,1.52,5.78.92-.52.85-1.36.85-2.13,0-9,1.42-17.83,2.43-26.71.09-.79.34-1.56.45-2.35a4.74,4.74,0,0,0,.09-2,6.23,6.23,0,0,1,.41-4.57l2.14-.28a5.2,5.2,0,0,1,.51,1.27,19,19,0,0,0,1.58,5.95c.8,1.91,1.67,3.75,2.58,5.6s1.37,3.73,2.1,5.58a19,19,0,0,0,1.46,2.92c1.38,2.17,2.08,4.68,3.52,6.84a30.18,30.18,0,0,0,2.12,3.17,21.21,21.21,0,0,1,2.56,4.32,33.43,33.43,0,0,0,6.73,8.89,1.24,1.24,0,0,0,1.59-1.12,5.11,5.11,0,0,1,1.61-3.1l1.59-7.19c.45-2,.77-4.12,1.38-6.11.79-2.56,1.81-5,2.73-7.56a8.35,8.35,0,0,0,.71-1.95c.21-2.55,1.46-4.72,2.31-7.05a33.13,33.13,0,0,0,1.75-6.6c.29-2.15,1.34-3.94,2-5.9a1.87,1.87,0,0,1,2.27-1.24,12.55,12.55,0,0,1,1.9,4.47c.6,2.12,1,4.35,2.71,6.06a6.56,6.56,0,0,1,1,2.12c1.06,2.55,2,5.18,3.19,7.65a29.33,29.33,0,0,0,3.08,4.11c.7-.45,1.2-.72,1.65-1.06a34.83,34.83,0,0,0,5.8-5.84,9.41,9.41,0,0,1,2-1.81,3.36,3.36,0,0,1,1.9-.76,19.38,19.38,0,0,1,5.45.73c2.74,1,5.49.71,8.22.5,3.39-.26,6.39-2,9.62-2.92a1.07,1.07,0,0,0,.51-.28c1.4-1.71,3.47-2.23,5.35-3.12s3.78-2.18,5.67-3.28c.94-.55,1.88-1.11,2.86-1.6a50.59,50.59,0,0,0,5.68-3.23,46.15,46.15,0,0,1,5.28-2.73c1.6-.8,3.16-1.7,4.83-2.34a21.49,21.49,0,0,1,4.54-1.17,40.7,40.7,0,0,1,4.45-.21c1.29-3,.28-6.59,3-9.12-1.5-3.26.25-6.43.18-9.68,0-1.42.61-1.72,2.69-2,.83.58.52,1.44.47,2.19-.29,4.42,1.07,8.4,3.09,12.24,1.33,2.54,2.56,5.13,3.77,7.73a11.27,11.27,0,0,1,.53,2.3c.4-.19.81-.25.89-.44.76-2,2.51-2.81,4.21-3.53,4-1.69,7.7-4,11.74-5.62a20,20,0,0,1,3.1-1,1.09,1.09,0,0,1,1.33.92,2.45,2.45,0,0,1-.44,1.32,1.53,1.53,0,0,1-.72.5c-2.08.94-4.2,1.82-6.27,2.79-2.6,1.22-5.18,2.51-7.76,3.77a7.2,7.2,0,0,1-1.32.68,4.71,4.71,0,0,0-3.53,2.91c-.57,1.33-1.73,1.85-3.35,1.76-.22-.43-.74-1-.66-1.43.31-1.73-.51-3.15-1.15-4.55C782.14,347.81,780.51,344.77,779,341.69ZM647.48,365.75c.07,0,.18-.06.21-.11s0-.16-.05-.24l-.34.19Z" transform="translate(400.39 -19.54)"/><path d="M-384.11,609.89l.09.06,0,0Z" transform="translate(400.39 -19.54)"/><path d="M371.26,603.58c-1.31.71-2.47,1.67-3.76,2.41a24.74,24.74,0,0,0-5,3.68,15.07,15.07,0,0,1-6.64,3.84c-1.35-.82.13-3.26-2.58-3.12a9.89,9.89,0,0,0-1.67,2.44c-.84,2.54-2.58,4.42-4.25,6.37a5.84,5.84,0,0,1-1.35,1.13c-1.08.68-2.21,1.28-3.47,2a9.75,9.75,0,0,0-1.3-.14c-2.06,0-4.15.36-6.07-.93-.4-.26-1.36.33-2.11.54-2.86-2.24-5.42-1.81-7.42,1.27-.81,1.25-1.67,2.47-2.49,3.71a7.68,7.68,0,0,0-1,1.79,5.89,5.89,0,0,1-3.36,3.58,34.53,34.53,0,0,0-3.6,2.06,2.65,2.65,0,0,1-2.81.19,3.66,3.66,0,0,1-2.36-2.83,3,3,0,0,0-.49-1.63,6.1,6.1,0,0,1-1.48-4.37l-1.88-1a6,6,0,0,0-2.57,2.94,3.58,3.58,0,0,1-3.25,2.21,9.29,9.29,0,0,1-1.68-.19c-2.26,2.78-4.2,5.63-6.86,7.89-1.49,1.27-2.61,3-4,4.34a13.69,13.69,0,0,1-10.82,4.17c-.37-.69-.58-1.57-.91-1.62-1.47-.21-1.92-1.14-2.26-2.38-.15-.54-1.18-1.13-1.07-1.38.69-1.56-.61-2.65-.82-4a1.87,1.87,0,0,0-1.22-1.1,1.31,1.31,0,0,0-1.58,1,10.75,10.75,0,0,1-2.87,5.08c2,2,1.47,4.16.55,6.27-3.22,1.48-4.8,1.14-7.26-1.25a4.64,4.64,0,0,1-1.44-2.42c-1.85.19-1.87-1.38-2.23-2.43l-2.26-.9c-.3-1-.55-1.82-.79-2.6l-1.86-.73a3.6,3.6,0,0,0,.13-1.14,14.61,14.61,0,0,0-3.61-6c-.42-.49-1.47-.14-1.76.53a5.67,5.67,0,0,0-.4,1.72c-.14,1.79-.2,3.58-.33,5.37,0,.53-.22,1-.46,2.21-1.13-2.16-1.91-4-3.82-4.41-.76-.17-1.29.91-1.16,1.78.22,1.44.6,2.86.91,4.32h1.34a44.13,44.13,0,0,1,3.14,10.31c0,.25-.23.52-.29.64a65.27,65.27,0,0,0-7.77,2.27,91,91,0,0,1-10.3,3.7c-.86.24-2.06.36-2.44,1-.81,1.25-2,1.09-3.08,1.42-1.43.41-2.79,1-4.18,1.57a8.11,8.11,0,0,1-1.65.63,7.16,7.16,0,0,0-3.5,1.43c-1,.72-2.41.79-3.62,1.19a1.77,1.77,0,0,0-1,.66c-.81,1.6-2.51,1.36-3.81,1.81a24.13,24.13,0,0,1-4.34.72,3.52,3.52,0,0,1-3.5,2.34c-2.78,0-5.28,1.39-7.91,2.17-.28.08-.71.17-.79.37-.58,1.43-2,1.26-3.1,1.78a11.84,11.84,0,0,1-1.09.5q-5.19,1.82-10.4,3.6a1.93,1.93,0,0,1-.59,0h-6l-.82,1c-.58-.43-1.11-1.18-1.63-1.17-2.33,0-4.8-.49-6.88,1a8.19,8.19,0,0,1-4.54,2,3.48,3.48,0,0,0-1.56.82c-1.86,1.25-3.47,2.86-5.57,3.76a2.63,2.63,0,0,1-.35.15l-.24.09c-.53.18-.92.74-1.35,1.2-3,1-5.27,3.35-8.05,4.79-.41.22-.62.79-1,1.1a31.32,31.32,0,0,1-3,2.35,1.34,1.34,0,0,1-2.13-.79c-.75-2-1.48-4-2.21-6l-.11,0,.08-.09,0,.07h0c-.33-.93-.65-1.86-1-2.71l-1.64-.77c-.22-.81.4-1.53-.21-2.33-.34-.45.06-1.42-.23-2a7.7,7.7,0,0,0-1.72-1.62l1.26-1c-1.17-2.94-2.72-5.79-3.38-8.83-.61-2.84-2.29-5.27-2.6-8.16-1.48-1.86-1.8-4.11-2.19-6.34a5.27,5.27,0,0,0-.36-.81c-.91-2.48-2.21-4.88-1.71-7.67A1.8,1.8,0,0,0,110.8,646a1.32,1.32,0,0,0-1.48,1.17,7.83,7.83,0,0,0-.36,2.64c.47,3.54-.88,6.87-1.12,10.33-.15,2.17-.64,4.32-.91,6.49s-.43,4.35-.71,6.52a8.35,8.35,0,0,1-1,1.9c0-6.16.06-11.61-.09-17s-.53-11.12-.82-16.81l-2.2-1c-.1,2.49-.49,4.7-.21,6.82a104.34,104.34,0,0,1,.67,19.67c-.14,2.46-.33,4.92-.38,7.38-.06,3.46,0,6.92,0,10.38,0,2.87-.12,5.74-.29,8.61-.18,3.16-.46,6.31-.73,9.46-.3,3.56,0,7.15-.65,10.69a21.83,21.83,0,0,0-.16,2.69c-.25,3.86,0,7.84-.91,11.56-.81,3.51-.39,6.86-.29,10.29a16,16,0,0,0,.27,1.93c2.14.45,2.56.41,2.85-.68.5-1.89.83-3.82,1.44-5.69a4.88,4.88,0,0,0,0-1.78,36.81,36.81,0,0,1,0-9.38c.86-5,1-10.08,1.51-15.13.29-3.06.61-6.12.91-9.17.14-1.48.31-3,.43-4.44.09-1.08.09-2.17.2-3.26.22-2.27.42-4.55.75-6.81,1-7.08,1.26-14.27,2.85-21.28a15.6,15.6,0,0,1,1.19-3.72,7.71,7.71,0,0,1,2,0c.3.09.46.63.74,1.06l-1.71.29a77.85,77.85,0,0,0,3.15,9.47c1.39,3.92,2.91,7.8,4.32,11.72,1.33,3.73,2.51,7.52,3.92,11.22.7,1.83,1.79,3.51,2.68,5.28.07.13,0,.35,0,.62l-1.64.94c.28-2.51-2-2-2.87-3.06-1.09-1.37-3.06-.88-4.06-2.32l-.93,1a20.1,20.1,0,0,0-3.92-.39,20.43,20.43,0,0,0-3.73,1c-.21.4-.33,1-.68,1.23-1.6,1.13-1.36,2.66-1.16,4.28a4.12,4.12,0,0,0,2.94,3.45,12.55,12.55,0,0,0,10.4-.13,9.64,9.64,0,0,1,5.51-1.23c.14.65.3,1.21.38,1.78a7.73,7.73,0,0,0,2.8,5.41,5,5,0,0,1,1.19,2c.46,1,.88,2,2.25,2.31.95-.49,2.11-1.34,1.5-2.42a20.39,20.39,0,0,1-2.25-7.26c-.09-.63-.72-1.18-1.07-1.78a3.79,3.79,0,0,1-.63-3.11,10.58,10.58,0,0,1,4.79-3.85,3.77,3.77,0,0,0,1.52-.93c1.79-2.06,4.27-3.2,6.35-4.87.31-.24.67-.43,1-.69l.06-.06a5,5,0,0,0,3.55-1.51,29.79,29.79,0,0,1,8.4-5c1.67-.72,3.68-.64,5.53-.91,3.29,1.33,6.44.23,9.6-.58,2.13-.54,4.26-1,6.37-1.62,1.53-.43,3-.91,4.53-1.45,3.64-1.33,7.26-2.71,10.88-4.09,2.69-1,5.37-2.1,8.06-3.13,1.2-.46,2.43-.89,3.65-1.3,2.07-.68,4.17-1.28,6.23-2,1.11-.4,2.27-.88,2.27-2.41,0-.11.26-.23.43-.37l1.07,1c.3-.08.6-.12.87-.22l14-5.31c3.25-1.24,6.49-2.5,9.77-3.65a14.53,14.53,0,0,1,6.15-1.21c.67,2.55,1.35,5,2,7.52a26.26,26.26,0,0,1,.41,2.66c.28,2,.53,3.94.8,5.91.33,2.36.67,4.73,1,7.1s1,4.61.35,7a2,2,0,0,0,.08.89c.47,1.72,1,3.45,1.45,5.17a2.44,2.44,0,0,0,.48,1.07,1.91,1.91,0,0,0,1.22.64,1.62,1.62,0,0,0,1.11-.78,3.69,3.69,0,0,0,0-3.45c-.33-.71-.76-1.37-1.4-2.51l2.27-1.09a4.86,4.86,0,0,1-1.44-3.14,53.19,53.19,0,0,0-1.21-5.79A42.68,42.68,0,0,1,252,671c-.23-3-1-5.87-1.46-8.81-.43-2.63-.8-5.26-1.22-8.07,2.86-.64,5.62-1.28,8.39-1.88.76-.16,1.54-.22,2.44-.34.42,1.12.74,2.15,1.19,3.14,1.31,2.9,2.31,3.81,5,1.3a2,2,0,0,0,.27-.52c-.14-.51-.29-1-.5-1.8,1.16.45,2,1.15,3,.78,2,1.37,4.38,1.21,6.62,1.27a15.19,15.19,0,0,0,7-1.23c3.39-1.58,6-4.17,9-6.3a2.94,2.94,0,0,0,.63-.64c3.5-4.54,7.36-8.84,10.12-13.9,1-1.89,2.28-2.62,4.4-2.09.53.66,1.06,1.39,1.66,2,2.49,2.68,5,3,8.36,1.61a16.8,16.8,0,0,0,5.93-4.38c1.39-1.56,2.61-3.27,3.93-4.89.81-1,1.64-2,2.52-2.91a1.79,1.79,0,0,1,2.17-.56c2.29,1.2,4.81,1.28,7.26,1.48,4.94.4,9.2-1,12.2-5.29,1-1.36,2.05-2.63,2.81-3.58,1.64,0,3,.33,4.14-.08a22.48,22.48,0,0,0,4.92-2.75c1.7-1.18,3.22-2.61,4.85-3.9a3,3,0,0,1,1.33-.65c2.1-.32,3.47-1.76,5-2.94C373.33,603.14,372.76,602.77,371.26,603.58ZM113,657h-.24c0-.13,0-.26.07-.38.07,0,.18.07.21.14S113,656.87,113,657Zm5.39,46.86a14.17,14.17,0,0,1-6-2,3.76,3.76,0,0,1-1.6-3.82,1.69,1.69,0,0,1,1.49-1.26,18.06,18.06,0,0,1,7.47-.28l4,3.61C122.37,702.39,119.39,701.71,118.35,703.82ZM142.41,689l-.09-.06.11,0Zm105-55.78.37-.29c.15.32.31.65.46,1l.19.16.11.2.75.48-.32.3-.43-.78-.19-.12-.11-.24Zm2.48,18.47c-1.31-2.25-2.17-7.15-2.1-11.82a2.54,2.54,0,0,1,.86-2.36c1.85.71,2.38,2.59,3.56,3.88s2.28,2.75,3.53,4a33.86,33.86,0,0,1,3.84,4Zm14.92-1.16a2.37,2.37,0,0,1,.5-.3c.06,0,.18.25.38.5Zm32.82-17.61.09.21a2.74,2.74,0,0,1-.4.15,1.54,1.54,0,0,1-.08-.19A3.29,3.29,0,0,1,297.66,632.94ZM270.38,637a1.18,1.18,0,0,1,.46,0,11.37,11.37,0,0,1,.17,1.17l-.73,0C270.31,637.8,270.33,637.41,270.38,637Zm28.15-1c-1.16,1.74-2.39,3.42-3.6,5.12-1.08,1.52-2.14,3.05-3.26,4.53a11.54,11.54,0,0,1-1.69,1.66c-.45.39-1.1.59-1.44,1-1.34,1.82-3.4,2.48-5.27,3.45a51.39,51.39,0,0,1-6.13,2.17c-1.69.64-2.95-.14-4.2-.54a34.79,34.79,0,0,0-4.47-1.45c-.27,0-.5-.31-.92-.6,1.4-.92,2.43-2.1,4.18-2.38,1.32-.22,1.48-.84,1.16-2.63l-1.76,1c-.18-.17-.44-.31-.43-.41.14-1.06.32-2.11.55-3.49a11.72,11.72,0,0,1,1.64,1c.73.67,1.38,1.42,2.05,2.15,2.27,2.5,5,2.3,7.64,1a30,30,0,0,0,7.28-4.93c1.59-1.48,3.28-2.86,4.75-4.47.94-1,1.85-2.06,2.79-3.08.38-.42.81-.81,1.32-1.32C299.53,634.81,298.9,635.48,298.53,636Zm9-6.69-1.42-3.26C307.83,626.71,307.83,627.63,307.51,629.35Z" transform="translate(400.39 -19.54)"/><path d="M-382,608c-.06.16-.13.31-.2.46a2.63,2.63,0,0,0,.35-.15C-381.95,608.23-382,608.12-382,608Zm-.06-.12.06.12,0-.06Zm-2,2,.09.06,0,0Zm-16.2,1.2-.08.09.11,0Z" transform="translate(400.39 -19.54)"/><path d="M1305.27,343.12a2.39,2.39,0,0,1-1.76,2.47c-.56.19-1.1.46-1.66.68-3.13,1.24-6.34,2.33-9.38,3.75-4,1.86-8,3.54-11.53,6.22-1.19.91-2.34,2.22-4.06,2.34-2.19-1.58-2.74-4.13-3.88-6.26-1.34-2.52-2.14-5.31-3.3-7.93a13.55,13.55,0,0,1-.34-10.44c.56-1.59,1-3.23,1.42-4.86a5.71,5.71,0,0,0,.1-2.06,2.13,2.13,0,0,0-2.11-1.77,1.61,1.61,0,0,0-1.68,1.4,29.48,29.48,0,0,0-.88,4.07,50.92,50.92,0,0,1-2.85,12.44,48.71,48.71,0,0,1-14.69,19.94c-1.9,1.55-4,2.87-5.47,5a3.55,3.55,0,0,1-2.32,1.11c-4.34.55-8.6,1.55-13,1.67a36,36,0,0,0-7.34,1.13,33.59,33.59,0,0,1-10.8.38c-.34-1.2-.6-2.12-.9-3.2a4.57,4.57,0,0,0-1.55.37,18.52,18.52,0,0,0-2.48,2.12c-2.08,2.12-4,4.46-7.35,4.47a2.31,2.31,0,0,0-.86.26c-3.85,1.58-7.69,3.17-11.54,4.74-1.47.59-3,1.12-4.45,1.69-1.66.64-3.3,1.34-5,2-1.21.44-2.45.82-3.69,1.19a16.57,16.57,0,0,1-4,1c-4.48.11-8.27,2-11.86,4.36-4.46,3-8.87,6-13.32,9a35.8,35.8,0,0,1-10.94,5.35c-3.13.8-5.47.1-7.27-2.34a11.35,11.35,0,0,1-.85-1.87,18.2,18.2,0,0,0-1.23-2.36,1.17,1.17,0,0,0-1.8.15,3.48,3.48,0,0,0-.32.83,46.53,46.53,0,0,1-5.47,11.42c-1.13,1.86-2.57,3.47-3.69,5.35a48.93,48.93,0,0,1-7.73,10.18,5.4,5.4,0,0,0-.59.72l-.37-.23c-1.17.92-2.2,1.85-3.34,2.61a8.47,8.47,0,0,0-2.69,2.27,2.74,2.74,0,0,1-3.69.86c-2.31-1.68-4.86-3.19-5.76-6.2h0c-1.68-1.45-2-3.67-3-5.52a15.18,15.18,0,0,1-1-3.71,54.44,54.44,0,0,1-1.4-7.31c-.25-3.55-.1-7.14-.13-10.71,0-.69-.07-1.39-.11-2.08a32.19,32.19,0,0,1-.19-4.15,125.73,125.73,0,0,1,2.72-20.08c1.48-6.07,2.86-12.15,5.32-18a93,93,0,0,1,6.85-12.81,5,5,0,0,1,3.64-2.7,12.68,12.68,0,0,1,.93-2c2-2.84,3.18-3,6-1.08a1.71,1.71,0,0,1,.92,1.72c-.35,2.35-.51,4.76-1.74,6.89a4,4,0,0,0-.67,1.32,11.11,11.11,0,0,1-2.21,4.83,2.71,2.71,0,0,0-.71,2.46,5,5,0,0,0,2.47-1.74c1.62-1.86,2.25-4.19,3.14-6.37a29.86,29.86,0,0,0,1.8-6,10.87,10.87,0,0,0-.27-4.12c-.35-1.57-3.14-3.4-4.75-3.4a4.4,4.4,0,0,0-3,1.16,50.23,50.23,0,0,0-10.55,11.61,26.07,26.07,0,0,0-3.46,7.23,31.75,31.75,0,0,1-2.54,7,23.65,23.65,0,0,0-2.28,7.36c-.13.79-.16,1.6-.36,2.36a100.55,100.55,0,0,0-3,15.17c-.07.59-.25,1.16-.34,1.75a28,28,0,0,0-.44,3.52c-.06,4.56-.08,9.12,0,13.68,0,2.58.12,5.17.37,7.74a50.74,50.74,0,0,0,3.62,14.1,23,23,0,0,0,7.75,10.29,5.56,5.56,0,0,0,5.62.65,10.82,10.82,0,0,0,3.3-2c1.85-1.6,3.57-3.37,5.3-5.11a1.37,1.37,0,0,0,.22-.3,2.58,2.58,0,0,0,1.26-.82c1.43-1.64,3-3.2,4.25-4.95a95.06,95.06,0,0,0,8.18-14.18c.62-1.24,1.2-2.5,1.86-3.73a8.82,8.82,0,0,1,1-1.22c1.32.25,1.71,1.28,2.42,1.95a8.07,8.07,0,0,0,7.94,2.26,23.83,23.83,0,0,0,3.94-1.36,96.41,96.41,0,0,0,13.53-7.57c3.2-2.15,6.35-4.39,9.53-6.6a11.54,11.54,0,0,1,6-2.43c4.44-.25,8.5-2.06,12.63-3.47s8.07-3.37,12.14-5a52.22,52.22,0,0,1,8.44-2.89,12.55,12.55,0,0,0,7.21-3.82c.59-.66,1.06-1.47,2.1-1.54a27.46,27.46,0,0,0,2.68,1.29,6.44,6.44,0,0,0,2.57.61,52.24,52.24,0,0,0,7.4-.86,75.16,75.16,0,0,1,14.46-1.94c1.6,0,3.19-.12,4.78-.23a3.42,3.42,0,0,0,1.69-.35c2-1.47,4.34-2.39,6.08-4.23a21.09,21.09,0,0,1,3.23-2.65,44.09,44.09,0,0,0,9.66-10.05,32.43,32.43,0,0,0,2.68-4.26c1.07-2,2-4.11,3-6.15.1-.2.47-.25.82-.43,1.54,2.78,2.17,5.85,3.51,8.58s3.2,5.48,4.83,8.21a15.41,15.41,0,0,1-.68,1.72c-2.07,3.74.93,8.36,5.87,8a2.07,2.07,0,0,0,2.21-2,3.63,3.63,0,0,0-.47-2.87c-.51-.73-1.08-1.43-1.57-2.18a2.93,2.93,0,0,1,.47-4,5,5,0,0,1,1-.65c4.21-2.24,8.09-5.09,12.67-6.61,4-1.31,7.53-3.64,11.63-4.61a16.46,16.46,0,0,0,2.56-.79,3.57,3.57,0,0,0,2.5-3.56C1309.09,342.26,1307.25,343,1305.27,343.12Zm-27.57,24.23a1.58,1.58,0,0,1-1.34.18c-.72-.25-.66-.89-.36-1.48a3.94,3.94,0,0,1,.59-.67,5.3,5.3,0,0,1,.79.45C1277.89,366.25,1278.2,366.84,1277.7,367.35Z" transform="translate(400.39 -19.54)"/></svg>